<?xml version="1.0" encoding="UTF-8"?>
<svg version="1.1" xmlns="http://www.w3.org/2000/svg" width="512" height="512">
<path d="M0 0 C0.91099457 -0.00540298 1.82198914 -0.01080597 2.7605896 -0.01637268 C5.7717132 -0.02887932 8.78188428 -0.01235591 11.79296875 0.00561523 C13.88517304 0.00546029 15.97737761 0.0039721 18.06958008 0.00120544 C22.45439339 -0.00017942 26.83887996 0.01239433 31.22363281 0.03515625 C36.84624204 0.06354093 42.46830824 0.06080462 48.09095764 0.04806614 C52.41122074 0.04111361 56.73135817 0.04889341 61.05160522 0.06132317 C63.12486286 0.0658418 65.19813396 0.06617088 67.27139282 0.06225777 C70.16818939 0.05934977 73.06423569 0.07583308 75.9609375 0.09765625 C76.81924164 0.0931546 77.67754578 0.08865295 78.56185913 0.08401489 C82.05444813 0.12776734 84.36627163 0.17321169 87.48168945 1.83946228 C90.0220548 4.65689773 90.10241953 7.33104245 90.078125 10.95092773 C90.07490234 11.79848633 90.07167969 12.64604492 90.06835938 13.51928711 C90.05998047 14.40036133 90.05160156 15.28143555 90.04296875 16.18920898 C90.03845703 17.08188477 90.03394531 17.97456055 90.02929688 18.89428711 C90.01751858 21.09682885 90.00107039 23.29923498 89.98046875 25.50170898 C97.30910203 25.53325207 104.63669252 25.52702275 111.96522713 25.47324276 C115.36872758 25.44943891 118.771251 25.43840071 122.17480469 25.45703125 C126.09232397 25.47790571 130.00837615 25.44236818 133.92578125 25.40405273 C135.74953781 25.42543556 135.74953781 25.42543556 137.61013794 25.44725037 C143.70868985 25.5132435 143.70868985 25.5132435 148.98446655 22.91491699 C150.57260524 21.06068456 150.57260524 21.06068456 151.74621582 19.088974 C152.98046875 17.50170898 152.98046875 17.50170898 154.93548584 16.82148743 C162.87512722 15.92998895 170.8026145 21.32880799 177.60546875 24.87670898 C179.05152038 25.61667873 180.49772863 26.3563425 181.9440918 27.09570312 C191.39177834 31.9657503 200.51611741 37.03906235 208.98046875 43.50170898 C209.91375 44.1990918 210.84703125 44.89647461 211.80859375 45.61499023 C229.40229116 59.36320807 242.75763625 75.76542305 252.98046875 95.50170898 C253.30144531 96.11240234 253.62242187 96.7230957 253.953125 97.35229492 C267.26528697 122.9879541 274.46757176 156.52951567 266.32421875 184.79858398 C260.92821456 199.66896763 260.92821456 199.66896763 256.078125 204.32983398 C254.75082378 206.38829809 254.75082378 206.38829809 255.38697815 208.35887146 C257.3419563 213.94184423 259.57048957 219.33252729 262.03515625 224.70874023 C262.41858185 225.55538742 262.80200745 226.40203461 263.197052 227.27433777 C264.41234041 229.95621784 265.63351975 232.63535801 266.85546875 235.31420898 C283.42860817 271.74796835 283.42860817 271.74796835 280.85546875 279.68920898 C278.58427232 284.88342504 275.56059253 287.66855281 270.54296875 290.31420898 C266.58013169 291.67813795 262.86336183 291.62199692 258.6953125 291.57592773 C257.43710693 291.5652124 256.17890137 291.55449707 254.88256836 291.54345703 C253.92487549 291.52968018 252.96718262 291.51590332 251.98046875 291.50170898 C252.01712646 292.30801758 252.05378418 293.11432617 252.09155273 293.94506836 C252.23786871 297.63022022 252.32835541 301.31476012 252.41796875 305.00170898 C252.50594727 306.90436523 252.50594727 306.90436523 252.59570312 308.84545898 C252.78909727 319.45450943 252.78909727 319.45450943 249.015625 323.84545898 C246.94426311 325.77184938 244.83944681 327.61728408 242.65130615 329.4105835 C238.23554177 333.29420716 235.45048142 336.1167255 234.93041992 342.12573242 C234.91711028 344.20437159 234.95022374 346.28369195 235.0234375 348.36108398 C235.02346268 349.46848938 235.02348785 350.57589478 235.02351379 351.71685791 C235.02938509 355.23028096 235.09489981 358.73909449 235.16796875 362.25170898 C235.21440906 365.7778035 235.24782847 369.30302047 235.25886536 372.82940674 C235.26839595 375.01659308 235.29964643 377.20382013 235.35527039 379.39031982 C235.42464955 386.763756 235.42464955 386.763756 233.0871582 390.6472168 C229.84516483 393.50110272 227.95750361 393.64652097 223.71484375 393.7421875 C222.0604126 393.7808065 222.0604126 393.7808065 220.37255859 393.82020569 C215.26121496 393.90498502 210.14991136 393.97047337 205.03808594 394.01660156 C202.36015605 394.04306078 199.68649323 394.09546866 197.00878906 394.16015625 C180.38701926 394.55596189 167.45192521 393.99354701 152.98046875 385.50170898 C151.80050284 384.87028903 150.61700618 384.24541253 149.4296875 383.62792969 C146.23976932 381.93996255 143.10799417 380.17716023 139.98046875 378.37670898 C138.95308594 377.7953418 137.92570312 377.21397461 136.8671875 376.61499023 C130.51350152 373.00622577 124.22814251 369.29074343 117.98046875 365.50170898 C116.63871805 367.16160676 115.30870216 368.83097514 113.98046875 370.50170898 C113.40748047 371.17202148 112.83449219 371.84233398 112.24414062 372.53295898 C100.23463442 387.07524702 93.4425222 405.56100162 94.26948547 424.51887512 C97.48590409 453.22357438 132.71255784 477.42674002 153.17522335 495.07230282 C156.56710573 498.02213853 157.86224684 499.24855678 158.29296875 503.81420898 C157.91076436 508.32422075 157.40434387 509.54883015 153.98046875 512.50170898 C150.27336614 513.26864398 146.60115897 513.17552285 142.82728577 513.1366272 C141.67583413 513.14442715 140.52438249 513.1522271 139.33803838 513.16026342 C136.14116171 513.17677494 132.94523169 513.1708087 129.7483784 513.15533233 C126.30109806 513.14403492 122.85394724 513.16147352 119.4066925 513.17523193 C112.65299759 513.19748702 105.89958021 513.19265299 99.14587433 513.17816873 C93.65733517 513.16688441 88.16887389 513.16534207 82.68032646 513.17078781 C81.50932702 513.17193706 81.50932702 513.17193706 80.31467102 513.17310952 C78.72883179 513.17470813 77.14299258 513.17632919 75.5571534 513.17797248 C60.67977034 513.19223687 45.80254122 513.17582699 30.92518341 513.14897065 C18.15715776 513.12663559 5.38935942 513.13050752 -7.37866211 513.15356445 C-22.20063841 513.1803179 -37.02247969 513.19085888 -51.84447676 513.17550313 C-53.42484222 513.17391037 -55.0052077 513.17233852 -56.5855732 513.17078781 C-57.36316878 513.17001643 -58.14076436 513.16924506 -58.94192345 513.1684503 C-64.42394583 513.16413159 -69.90588264 513.1714236 -75.38789177 513.18318558 C-82.06868975 513.1972043 -88.74919398 513.19342434 -95.42995828 513.16678186 C-98.83929355 513.15363415 -102.24813897 513.14850662 -105.6574707 513.16502762 C-109.35192808 513.17863769 -113.04499639 513.16161905 -116.73936462 513.1366272 C-118.35929672 513.15335761 -118.35929672 513.15335761 -120.01195472 513.17042601 C-127.24313308 513.07516954 -127.24313308 513.07516954 -131.17766666 510.16905785 C-133.01953125 507.50170898 -133.01953125 507.50170898 -133.76953125 504.18920898 C-132.14305241 496.19235468 -125.25440605 491.76110087 -118.90673828 487.29077148 C-93.7356658 469.56204076 -60.75120158 446.03587253 -54.68200648 413.93275261 C-49.21451943 381.38315116 -52.03467179 346.51535704 -54.97714233 313.82055664 C-55.0786302 312.61839005 -55.18011806 311.41622345 -55.28468132 310.17762756 C-55.47837494 307.94285295 -55.69470681 305.70987629 -55.93808174 303.47996521 C-56.55932677 296.25424981 -56.55932677 296.25424981 -53.74861145 292.33576965 C-50.31221414 290.02636111 -48.30618399 289.92270782 -44.1875 290.01342773 C-43.0224292 290.02591553 -41.8573584 290.03840332 -40.65698242 290.05126953 C-39.18849854 290.09678955 -37.72001465 290.14230957 -36.20703125 290.18920898 C-31.52515625 290.29233398 -26.84328125 290.39545898 -22.01953125 290.50170898 C-22.01953125 276.64170898 -22.01953125 262.78170898 -22.01953125 248.50170898 C-24.32953125 248.50170898 -26.63953125 248.50170898 -29.01953125 248.50170898 C-32.11016847 246.68218666 -33.63064608 245.42777016 -35.0234375 242.11108398 C-35.20777344 241.16749023 -35.39210937 240.22389648 -35.58203125 239.25170898 C-35.81148437 238.12506836 -36.0409375 236.99842773 -36.27734375 235.83764648 C-36.89460201 232.37254461 -37.4224803 228.89566425 -37.94921875 225.41577148 C-38.11607178 224.34101563 -38.2829248 223.26625977 -38.45483398 222.15893555 C-38.78684513 219.9889998 -39.10177508 217.81637444 -39.39868164 215.64135742 C-39.55071045 214.63363281 -39.70273926 213.6259082 -39.859375 212.58764648 C-39.98691162 211.68062988 -40.11444824 210.77361328 -40.24584961 209.83911133 C-41.21475096 206.91192245 -42.37394462 206.01243929 -45.01953125 204.50170898 C-47.11090938 204.57211171 -47.11090938 204.57211171 -49.26953125 205.43920898 C-50.130625 205.73311523 -50.99171875 206.02702148 -51.87890625 206.32983398 C-58.7809212 208.8956671 -58.7809212 208.8956671 -65.66113281 211.51904297 C-70.81094709 213.50170898 -70.81094709 213.50170898 -73.01953125 213.50170898 C-72.95024414 214.2487207 -72.88095703 214.99573242 -72.80957031 215.76538086 C-72.09248847 224.14069266 -71.80268672 232.4787866 -71.77929688 240.87963867 C-71.76941271 243.02746859 -71.7381702 245.17440716 -71.70703125 247.32202148 C-71.70051423 248.70482844 -71.69525868 250.08764204 -71.69140625 251.47045898 C-71.68206055 252.7021582 -71.67271484 253.93385742 -71.66308594 255.20288086 C-72.05271821 258.80884748 -72.83463046 260.63714662 -75.01953125 263.50170898 C-78.40622665 265.75950592 -79.53643976 265.74657681 -83.50073242 265.72875977 C-84.62166794 265.7286087 -85.74260345 265.72845764 -86.89750671 265.728302 C-88.71167839 265.71281815 -88.71167839 265.71281815 -90.5625 265.69702148 C-92.42060051 265.69277664 -92.42060051 265.69277664 -94.3162384 265.68844604 C-97.60591212 265.67914084 -100.89538988 265.6611769 -104.18499756 265.63903809 C-107.54322919 265.61856168 -110.90148953 265.6094405 -114.25976562 265.59936523 C-120.84643098 265.5772917 -127.43296508 265.54380421 -134.01953125 265.50170898 C-134.32044678 266.45094238 -134.6213623 267.40017578 -134.93139648 268.37817383 C-137.00486612 274.33015286 -141.68842613 278.0996358 -147.20703125 280.93920898 C-154.2680273 283.71789738 -161.8794933 283.70761689 -168.89453125 280.81420898 C-175.56483549 277.33457374 -179.94528092 273.31079005 -183.09765625 266.44311523 C-185.44178948 258.96374098 -185.1996374 251.15483351 -181.95703125 244.00170898 C-178.28116878 237.71350605 -173.30619339 233.22382874 -166.3125 230.97827148 C-158.35347966 229.3240969 -151.40075742 229.84445433 -144.28515625 233.87280273 C-139.20139724 237.52785016 -135.54759404 241.38945782 -134.01953125 247.50170898 C-119.49953125 247.50170898 -104.97953125 247.50170898 -90.01953125 247.50170898 C-90.34953125 243.21170898 -90.67953125 238.92170898 -91.01953125 234.50170898 C-90.9140078 231.47865751 -90.80848248 228.45560575 -90.70117188 225.43261719 C-90.42224815 210.07618296 -95.5003346 200.38325476 -103.67578125 187.95874023 C-106.48094234 183.64666231 -108.0679144 180.66488213 -108.01953125 175.50170898 C-105.92093113 169.90544199 -101.74148606 167.63341945 -97.01953125 163.50170898 C-117.47953125 163.50170898 -137.93953125 163.50170898 -159.01953125 163.50170898 C-160.33953125 165.81170898 -161.65953125 168.12170898 -163.01953125 170.50170898 C-168.66493559 177.02958553 -175.0385185 179.96802905 -183.51953125 180.87670898 C-191.15859666 180.05823769 -198.36935499 177.51077548 -203.6484375 171.71264648 C-209.06216173 164.95527504 -210.95621099 158.09537392 -210.01953125 149.50170898 C-208.45169015 142.5188873 -204.66042753 135.96556509 -198.6875 131.92358398 C-190.82951311 127.72300113 -184.17224121 126.65598505 -175.4765625 128.64624023 C-168.9088139 130.93294444 -163.97919407 135.93343314 -160.01953125 141.50170898 C-160.01953125 142.49170898 -160.01953125 143.48170898 -160.01953125 144.50170898 C-159.28720276 144.48918091 -158.55487427 144.47665283 -157.800354 144.46374512 C-150.80172572 144.34432338 -143.80307165 144.22656917 -136.80438614 144.11055756 C-133.20876796 144.05090054 -129.61316175 143.99066181 -126.01757812 143.92895508 C-110.01776298 143.65479011 -94.02231245 143.41492078 -78.01953125 143.50170898 C-78.01953125 142.84170898 -78.01953125 142.18170898 -78.01953125 141.50170898 C-78.55320313 141.27741211 -79.086875 141.05311523 -79.63671875 140.82202148 C-82.81168163 139.06277976 -85.4210225 136.748849 -88.14453125 134.37670898 C-92.9808343 130.20606532 -97.89490012 126.20035107 -102.99609375 122.35327148 C-105.30381565 120.24157229 -106.65325715 118.31257863 -108.01953125 115.50170898 C-108.01953125 114.18170898 -108.01953125 112.86170898 -108.01953125 111.50170898 C-108.68494431 111.51281204 -109.35035736 111.5239151 -110.03593445 111.53535461 C-116.96254044 111.64598557 -123.88889543 111.72139237 -130.81616211 111.77636719 C-133.40122675 111.801509 -135.98622032 111.83562714 -138.57104492 111.87890625 C-142.28712499 111.93956821 -146.00226511 111.96792318 -149.71875 111.98999023 C-150.87412766 112.01579666 -152.02950531 112.04160309 -153.21989441 112.06819153 C-158.0366398 112.06987469 -161.08665165 112.06830112 -165.2578125 109.53491211 C-167.6664858 105.38782826 -167.65485483 102.1958815 -167.5078125 97.48217773 C-167.50073776 96.62360672 -167.49366302 95.76503571 -167.4863739 94.88044739 C-167.45847527 92.14913296 -167.39574816 89.4198994 -167.33203125 86.68920898 C-167.30694239 84.83311889 -167.28413024 82.97699652 -167.26367188 81.12084961 C-167.20866378 76.58033927 -167.12242489 72.04137641 -167.01953125 67.50170898 C-168.19213501 67.05033569 -168.19213501 67.05033569 -169.38842773 66.58984375 C-175.10218368 64.22682897 -179.680795 59.86223846 -182.51953125 54.37670898 C-185.39670618 46.80315882 -185.34038018 38.52263356 -182.01953125 31.12670898 C-178.75189777 25.42691649 -174.2795909 21.34071699 -168.58203125 18.12670898 C-159.70786673 15.96227861 -151.94781113 16.05965415 -143.83203125 20.62670898 C-137.96622195 24.59578953 -133.39403679 30.49173074 -132.01953125 37.50170898 C-131.22845701 46.83638501 -132.34105183 53.56058441 -138.39453125 60.81420898 C-141.01514051 63.63427265 -143.47522772 65.88145594 -147.01953125 67.50170898 C-147.67953125 67.50170898 -148.33953125 67.50170898 -149.01953125 67.50170898 C-149.01953125 76.08170898 -149.01953125 84.66170898 -149.01953125 93.50170898 C-141.92770368 93.72733473 -134.86964425 93.90239404 -127.77929688 93.95336914 C-125.37346604 93.98536501 -122.96783049 94.04583125 -120.56347656 94.13598633 C-107.62877793 95.18209077 -107.62877793 95.18209077 -95.9744873 90.89038086 C-92.70102031 87.02439991 -90.78708247 82.77797398 -88.83880615 78.14648438 C-88.01953125 76.50170898 -88.01953125 76.50170898 -86.23095703 74.93725586 C-80.49959595 73.80844727 -75.21579462 76.00036126 -69.94921875 78.07592773 C-68.62781594 78.5836407 -67.30619477 79.09078567 -65.984375 79.59741211 C-63.92995518 80.39399873 -61.87795678 81.19577959 -59.82958984 82.0078125 C-57.83328642 82.79562664 -55.82976827 83.56201745 -53.82421875 84.32592773 C-52.63812012 84.79087646 -51.45202148 85.2558252 -50.22998047 85.73486328 C-47.1042056 86.69422333 -47.1042056 86.69422333 -44.21923828 86.07519531 C-40.22864376 83.22065794 -40.2413554 78.70512676 -39.39697266 74.12426758 C-39.22343262 72.97780762 -39.04989258 71.83134766 -38.87109375 70.65014648 C-38.67 69.38686523 -38.46890625 68.12358398 -38.26171875 66.82202148 C-37.95222326 64.84360098 -37.64280619 62.86513293 -37.34765625 60.88452148 C-37.05710381 58.9500539 -36.74557547 57.01877387 -36.43359375 55.08764648 C-36.25779785 53.94344238 -36.08200195 52.79923828 -35.90087891 51.62036133 C-34.90211503 48.08623119 -33.52954161 46.15253507 -31.01953125 43.50170898 C-27.83128557 41.90758615 -24.39056463 42.39996163 -20.89453125 42.43920898 C-20.14042969 42.4437207 -19.38632813 42.44823242 -18.609375 42.45288086 C-16.74605998 42.46467399 -14.8827857 42.48260957 -13.01953125 42.50170898 C-13.04047852 41.37152344 -13.06142578 40.24133789 -13.08300781 39.0769043 C-13.15545821 34.88009329 -13.20134909 30.68333746 -13.23925781 26.48608398 C-13.25936186 24.67023419 -13.2866496 22.85444904 -13.32128906 21.03881836 C-13.36986164 18.42732793 -13.39251152 15.816694 -13.41015625 13.20483398 C-13.43080139 12.39427551 -13.45144653 11.58371704 -13.47271729 10.74859619 C-13.47402783 7.44978604 -13.40123202 5.07896439 -11.55487061 2.28666687 C-7.7960279 -0.35967549 -4.4953554 -0.05063585 0 0 Z M4.98046875 18.50170898 C4.98046875 26.42170898 4.98046875 34.34170898 4.98046875 42.50170898 C7.62046875 43.16170898 10.26046875 43.82170898 12.98046875 44.50170898 C16.53541213 47.56561048 16.78216469 51.71504287 17.41015625 56.15405273 C17.65056816 57.66779989 17.89146872 59.1814695 18.1328125 60.69506836 C18.49762369 63.06830512 18.8559091 65.44220923 19.20458984 67.81787109 C19.54709252 70.12056867 19.91465195 72.41821875 20.28515625 74.71655273 C20.38118134 75.42190659 20.47720642 76.12726044 20.57614136 76.85398865 C21.40149501 81.85886102 23.13218315 84.26524036 26.98046875 87.50170898 C32.47160551 85.9589867 37.84407872 84.22402662 43.1796875 82.20483398 C44.24380859 81.80393555 45.30792969 81.40303711 46.40429688 80.98999023 C48.5955263 80.15860815 50.78301661 79.31730905 52.96679688 78.46655273 C63.97089282 74.35924884 63.97089282 74.35924884 68.98046875 76.50170898 C69.83865749 77.98674559 70.64849266 79.50011713 71.42578125 81.02905273 C72.79821383 83.57602494 72.79821383 83.57602494 74.98046875 85.50170898 C80.28730205 86.66368276 85.47464618 86.35195028 90.85546875 86.06420898 C92.32149199 86.01902334 93.78764864 85.97796576 95.25390625 85.94116211 C98.83221555 85.84238298 102.4054918 85.68734377 105.98046875 85.50170898 C106.78291016 83.78661133 106.78291016 83.78661133 107.6015625 82.03686523 C109.96652852 77.31419724 112.9032346 73.1728882 116.04296875 68.93920898 C116.60717529 68.16778564 117.17138184 67.3963623 117.75268555 66.6015625 C119.48895175 64.23021335 121.23347964 61.86516662 122.98046875 59.50170898 C124.59466499 57.31436973 126.20835304 55.126668 127.82006836 52.9375 C128.78676679 51.6259756 129.75624371 50.31649371 130.72875977 49.00927734 C132.97592949 46.49706769 132.97592949 46.49706769 133.98046875 43.50170898 C133.27525085 43.49806335 132.57003296 43.49441772 131.84344482 43.49066162 C125.19272277 43.45277225 118.54246407 43.3959096 111.89208603 43.31780624 C108.47312265 43.27832058 105.05441721 43.24613799 101.63525391 43.23071289 C97.70311504 43.21265207 93.7716911 43.16270547 89.83984375 43.11108398 C88.61368347 43.10985535 87.38752319 43.10862671 86.12420654 43.10736084 C84.98332581 43.08764221 83.84244507 43.06792358 82.66699219 43.04760742 C81.66327576 43.03872498 80.65955933 43.02984253 79.62542725 43.02069092 C76.98046875 42.50170898 76.98046875 42.50170898 72.98046875 38.50170898 C72.65046875 31.90170898 72.32046875 25.30170898 71.98046875 18.50170898 C49.87046875 18.50170898 27.76046875 18.50170898 4.98046875 18.50170898 Z M-163.95703125 37.56420898 C-166.3667038 40.39795627 -166.3667038 40.39795627 -166.01953125 44.12670898 C-164.92888468 48.03342514 -164.92888468 48.03342514 -162.01953125 50.50170898 C-159.65490633 51.50806144 -159.65490633 51.50806144 -157.01953125 51.50170898 C-153.53318524 49.8801527 -152.17650931 48.73717607 -150.01953125 45.50170898 C-150.19286253 40.60413509 -150.19286253 40.60413509 -152.70703125 36.56420898 C-157.21918043 34.49105936 -159.89033501 34.70886907 -163.95703125 37.56420898 Z M159.98046875 37.50170898 C159.64950195 37.99348633 159.31853516 38.48526367 158.97753906 38.99194336 C152.71315574 48.27857906 146.4133887 57.50692325 139.55566406 66.36889648 C138.64227298 67.55998522 137.74722753 68.76530379 136.86827087 69.98202515 C135.40044052 71.94116502 133.89327154 73.78946398 132.31513977 75.65591431 C123.27150175 86.87314793 122.27234377 96.45900772 122.34375 110.54467773 C122.32357131 112.6462904 122.30091189 114.74788053 122.27592468 116.84944153 C122.23739042 121.2331122 122.24051638 125.61434025 122.27172852 129.99804688 C122.29945703 134.45282324 122.26487841 138.89968901 122.16918945 143.35351562 C120.39377998 174.38520461 120.39377998 174.38520461 133.94038391 200.93998718 C135.30184303 202.24989424 136.68938559 203.53349275 138.10716248 204.78222656 C140.83935082 207.29006519 142.80375957 210.08711191 144.91796875 213.12670898 C145.50449219 213.92334961 146.09101563 214.71999023 146.6953125 215.54077148 C149.46505238 219.76693993 149.15775306 224.06691688 149.18359375 228.93139648 C149.18929382 229.75874298 149.1949939 230.58608948 149.2008667 231.43850708 C149.21030898 233.18856531 149.21684762 234.93864125 149.22070312 236.6887207 C149.23040722 239.3597733 149.2614366 242.03005574 149.29296875 244.70092773 C149.29949933 246.40274609 149.30474959 248.10456994 149.30859375 249.80639648 C149.32094055 250.60238251 149.33328735 251.39836853 149.3460083 252.21847534 C149.32785773 256.75885914 149.17426493 260.00331459 145.98046875 263.50170898 C143.32127108 265.05743497 140.53953928 266.1438194 137.6640625 267.23608398 C136.44566429 267.72132538 136.44566429 267.72132538 135.20265198 268.21636963 C132.61355552 269.24362965 130.01626624 270.24797981 127.41796875 271.25170898 C125.66541586 271.94159357 123.91345475 272.63298349 122.16210938 273.32592773 C118.96382051 274.59032327 115.76192445 275.8446604 112.55639648 277.09057617 C110.67278495 277.83388707 108.79165698 278.59611487 106.98046875 279.50170898 C106.74808569 286.81197428 106.570756 294.12143586 106.46234703 301.43465519 C106.41029382 304.83130476 106.33980044 308.22541681 106.22607422 311.62060547 C106.09595789 315.52987531 106.04799378 319.43814248 106.00390625 323.34936523 C105.9522934 324.56004166 105.90068054 325.77071808 105.84750366 327.01808167 C105.77701201 333.48993919 105.77701201 333.48993919 109.10736084 338.76808167 C111.66018679 340.57767402 114.20586577 342.06065169 116.98046875 343.50170898 C118.55960584 344.47738937 120.1335663 345.46156495 121.69921875 346.45874023 C123.29005792 347.41542026 124.88389637 348.36712791 126.48046875 349.31420898 C127.34285156 349.82773926 128.20523437 350.34126953 129.09375 350.87036133 C136.16084766 355.05707347 143.25269228 359.187143 150.51171875 363.03295898 C153.51800012 364.63734749 156.29106972 366.38182229 159.07421875 368.34545898 C176.11146322 379.51818257 197.47323826 376.37665377 216.98046875 375.50170898 C216.98926811 374.65392632 216.98926811 374.65392632 216.99824524 373.78901672 C217.06223947 367.90003208 217.14667459 362.01159088 217.24291992 356.12304688 C217.2761493 353.92617971 217.30418741 351.72922758 217.3269043 349.53222656 C217.36048629 346.37194656 217.41280509 343.21244378 217.46875 340.05249023 C217.47513992 339.07210281 217.48152985 338.09171539 217.4881134 337.08161926 C217.59556335 332.08439047 217.73270033 328.57370734 220.98046875 324.50170898 C219.72234375 324.10983398 218.46421875 323.71795898 217.16796875 323.31420898 C205.72475463 319.46398827 190.11278931 313.69878013 183.98046875 302.50170898 C183.2951254 298.45818322 183.33110766 296.55692076 185.48046875 293.06420898 C188.25574264 291.3296628 190.42597831 290.69710295 193.71484375 290.84936523 C197.66460573 291.98662429 200.35431521 294.75746941 203.421875 297.40014648 C211.90841142 304.37076724 223.07276769 307.64327775 233.98046875 307.50170898 C233.98981445 306.64416016 233.99916016 305.78661133 234.00878906 304.90307617 C234.05288166 301.71198219 234.11452931 298.52184143 234.18798828 295.33129883 C234.21615974 293.95219247 234.23739347 292.5729258 234.25146484 291.19360352 C234.2729442 289.20747949 234.32170007 287.2217099 234.37109375 285.23608398 C234.39204102 284.04208984 234.41298828 282.8480957 234.43457031 281.61791992 C234.98046875 278.50170898 234.98046875 278.50170898 236.66601562 276.11889648 C239.50700794 274.13379806 241.17450533 273.96566565 244.62109375 273.89233398 C245.69101562 273.86010742 246.7609375 273.82788086 247.86328125 273.79467773 C248.97445312 273.78049805 250.085625 273.76631836 251.23046875 273.75170898 C252.35710937 273.72206055 253.48375 273.69241211 254.64453125 273.66186523 C257.42324896 273.59121987 260.20113023 273.53849621 262.98046875 273.50170898 C260.98796778 267.0904986 258.54786185 261.02255033 255.7421875 254.92749023 C255.33893753 254.04119431 254.93568756 253.15489838 254.5202179 252.241745 C253.24038292 249.43060581 251.9545261 246.62227707 250.66796875 243.81420898 C247.78909414 237.51204489 244.91847243 231.20627149 242.06536865 224.89239502 C241.06553491 222.68916083 240.05248293 220.49246892 239.03759766 218.29614258 C238.4825345 217.06687737 237.92826766 215.83725211 237.375 214.60717773 C236.90553955 213.58132568 236.4360791 212.55547363 235.95239258 211.49853516 C234.81442231 207.98972204 234.7048354 205.16952114 234.98046875 201.50170898 C236.51953125 199.05249023 236.51953125 199.05249023 238.60546875 196.81420898 C250.08368461 183.42295715 251.98566735 169.51144718 250.98046875 152.50170898 C248.49773347 122.00226102 234.82104288 94.56608194 213.98046875 72.50170898 C213.30628906 71.76307617 212.63210938 71.02444336 211.9375 70.26342773 C198.42291994 55.98817713 178.70192533 43.74219451 159.98046875 37.50170898 Z M-18.01953125 60.50170898 C-19.51499275 65.01503874 -20.35272475 69.42528789 -21.02734375 74.13452148 C-21.30191406 75.96176758 -21.30191406 75.96176758 -21.58203125 77.82592773 C-21.95767723 80.36414674 -22.30918633 82.90605285 -22.63671875 85.45092773 C-24.05858549 94.51052457 -24.05858549 94.51052457 -26.84277344 97.38232422 C-28.85718839 98.63584692 -30.83258399 99.5910803 -33.01953125 100.50170898 C-34.13328125 101.28481445 -34.13328125 101.28481445 -35.26953125 102.08374023 C-35.84703125 102.48979492 -36.42453125 102.89584961 -37.01953125 103.31420898 C-37.88578125 103.94262695 -37.88578125 103.94262695 -38.76953125 104.58374023 C-46.98022912 107.93359093 -54.67912122 103.60329174 -62.26953125 100.43920898 C-64.58308178 99.47990086 -66.90064966 98.53020792 -69.22265625 97.59155273 C-70.24004883 97.16737061 -71.25744141 96.74318848 -72.30566406 96.30615234 C-75.14501014 95.46451458 -76.35546836 95.25632567 -79.01953125 96.50170898 C-80.60952455 98.84898011 -81.95454862 101.07304746 -83.26953125 103.56420898 C-83.81480469 104.55904297 -83.81480469 104.55904297 -84.37109375 105.57397461 C-85.26569873 107.21016003 -86.14419192 108.85513622 -87.01953125 110.50170898 C-79.88785163 117.70793577 -72.28893208 124.17992718 -64.3046875 130.42358398 C-60.72643024 133.67765725 -59.94662189 135.90871142 -59.71875 140.65405273 C-59.70418992 142.24904315 -59.70062545 143.84416498 -59.70703125 145.43920898 C-59.69091797 146.2377832 -59.67480469 147.03635742 -59.65820312 147.85913086 C-59.65428407 152.5894249 -59.90762161 155.72112454 -63.01953125 159.50170898 C-65.11344528 161.5590481 -67.32071091 163.4439804 -69.58203125 165.31420898 C-70.50943115 166.09489746 -70.50943115 166.09489746 -71.45556641 166.89135742 C-76.57324391 171.18189543 -81.76237912 175.38320271 -87.01953125 179.50170898 C-86.08711621 181.42085451 -85.1483865 183.33693285 -84.20703125 185.25170898 C-83.68496094 186.31905273 -83.16289062 187.38639648 -82.625 188.48608398 C-81.25786205 191.05404141 -79.84237662 193.24641681 -78.01953125 195.50170898 C-73.889646 194.92389783 -70.29799189 193.98269155 -66.4296875 192.43530273 C-65.39779297 192.0324707 -64.36589844 191.62963867 -63.30273438 191.21459961 C-61.15763333 190.3651448 -59.01439024 189.51098292 -56.87304688 188.65209961 C-44.79053854 183.95627759 -44.79053854 183.95627759 -39.11499023 186.28222656 C-37.07115317 187.32207349 -35.14877098 188.47006693 -33.20703125 189.68920898 C-32.20639648 190.27025391 -32.20639648 190.27025391 -31.18554688 190.86303711 C-27.13438872 193.33624668 -25.48796155 194.83586374 -24.01953125 199.50170898 C-23.54752184 201.82994482 -23.13486872 204.17060561 -22.765625 206.51733398 C-22.65984634 207.17376892 -22.55406769 207.83020386 -22.44508362 208.50653076 C-22.1102415 210.58742494 -21.78296383 212.66940213 -21.45703125 214.75170898 C-21.12690631 216.84818242 -20.79507757 218.94432364 -20.45826721 221.03973389 C-20.15459844 222.93033714 -19.85729638 224.82195972 -19.56030273 226.71362305 C-19.30935385 229.39839647 -19.30935385 229.39839647 -18.01953125 230.50170898 C-16.67685712 230.58802773 -15.32978803 230.60877372 -13.984375 230.59936523 C-13.17548828 230.59614258 -12.36660156 230.59291992 -11.53320312 230.58959961 C-10.68306641 230.5812207 -9.83292969 230.5728418 -8.95703125 230.56420898 C-8.10302734 230.55969727 -7.24902344 230.55518555 -6.36914062 230.55053711 C-4.25257462 230.53871272 -2.1360444 230.52077667 -0.01953125 230.50170898 C2.31000449 223.22320399 3.28084222 215.76275483 4.39257812 208.21850586 C6.03911649 197.71608386 6.03911649 197.71608386 8.98046875 193.50170898 C11.57421875 191.67358398 11.57421875 191.67358398 14.48046875 190.25170898 C15.43953125 189.77217773 16.39859375 189.29264648 17.38671875 188.79858398 C18.24265625 188.37061523 19.09859375 187.94264648 19.98046875 187.50170898 C20.97046875 186.84170898 21.96046875 186.18170898 22.98046875 185.50170898 C28.04671101 185.09461704 31.73661336 185.85725103 36.4296875 187.72436523 C37.60724609 188.18004883 38.78480469 188.63573242 39.99804688 189.10522461 C41.20912109 189.58668945 42.42019531 190.0681543 43.66796875 190.56420898 C46.0845814 191.52346535 48.50501985 192.47315535 50.9296875 193.41186523 C51.99533936 193.83604736 53.06099121 194.26022949 54.15893555 194.69726562 C57.04361098 195.51971138 58.28876534 195.77138747 60.98046875 194.50170898 C62.57046205 192.15443786 63.91548612 189.93037051 65.23046875 187.43920898 C65.59398437 186.77598633 65.9575 186.11276367 66.33203125 185.42944336 C67.22663623 183.79325794 68.10512942 182.14828175 68.98046875 180.50170898 C65.0243126 176.43165199 60.84631999 172.70010257 56.54296875 169.00170898 C55.90037109 168.44612305 55.25777344 167.89053711 54.59570312 167.31811523 C53.96083984 166.77026367 53.32597656 166.22241211 52.671875 165.65795898 C52.05344727 165.12364258 51.43501953 164.58932617 50.79785156 164.03881836 C49.61678129 163.03989058 48.41872978 162.06058503 47.20214844 161.10522461 C43.06746211 157.84968243 43.06746211 157.84968243 42.10546875 154.00170898 C42.03124535 152.50296718 41.9948277 151.00221887 41.98046875 149.50170898 C41.93148437 148.4356543 41.8825 147.36959961 41.83203125 146.27124023 C41.53076958 136.01675643 41.53076958 136.01675643 44.98046875 131.50170898 C46.94792899 129.65721501 48.89264251 127.94473073 50.98046875 126.25170898 C51.83354614 125.54534302 51.83354614 125.54534302 52.70385742 124.82470703 C54.45675489 123.3762589 56.21793772 121.93841049 57.98046875 120.50170898 C59.0811149 119.59723025 60.18139036 118.69230021 61.28125 117.78686523 C63.84187177 115.68456487 66.40804975 113.58954405 68.98046875 111.50170898 C68.04805371 109.58256346 67.109324 107.66648512 66.16796875 105.75170898 C65.64589844 104.68436523 65.12382812 103.61702148 64.5859375 102.51733398 C63.21879955 99.94937656 61.80331412 97.75700116 59.98046875 95.50170898 C56.27967507 96.13741017 53.00631973 97.17320926 49.5234375 98.56811523 C48.49283203 98.97094727 47.46222656 99.3737793 46.40039062 99.78881836 C44.25423652 100.63560907 42.11095766 101.48972536 39.97070312 102.35131836 C27.39060194 107.23443552 27.39060194 107.23443552 20.99389648 104.72119141 C18.94803006 103.6884211 17.03873607 102.5439385 15.10546875 101.31420898 C14.44289063 100.9268457 13.7803125 100.53948242 13.09765625 100.14038086 C9.07274847 97.66571703 7.44461841 96.14231891 5.98046875 91.50170898 C5.50845934 89.17347315 5.09580622 86.83281236 4.7265625 84.48608398 C4.62078384 83.82964905 4.51500519 83.17321411 4.40602112 82.49688721 C4.071179 80.41599303 3.74390133 78.33401584 3.41796875 76.25170898 C3.08784381 74.15523555 2.75601507 72.05909432 2.41920471 69.96368408 C2.11553594 68.07308083 1.81823388 66.18145825 1.52124023 64.28979492 C1.27029135 61.6050215 1.27029135 61.6050215 -0.01953125 60.50170898 C-1.36220538 60.41539024 -2.70927447 60.39464425 -4.0546875 60.40405273 C-4.86357422 60.40727539 -5.67246094 60.41049805 -6.50585938 60.41381836 C-7.35599609 60.42219727 -8.20613281 60.43057617 -9.08203125 60.43920898 C-9.93603516 60.4437207 -10.79003906 60.44823242 -11.66992188 60.45288086 C-13.78648788 60.46470525 -15.9030181 60.4826413 -18.01953125 60.50170898 Z M85.98046875 103.50170898 C86.97046875 105.81170898 87.96046875 108.12170898 88.98046875 110.50170898 C89.62597266 114.45542044 89.34812944 115.93120102 87.16796875 119.31420898 C83.73547045 123.05159968 79.67515331 126.12289152 75.69921875 129.25561523 C72.97857324 131.50327496 70.47585311 134.00632462 67.98046875 136.50170898 C80.52046875 136.50170898 93.06046875 136.50170898 105.98046875 136.50170898 C105.98046875 125.61170898 105.98046875 114.72170898 105.98046875 103.50170898 C99.38046875 103.50170898 92.78046875 103.50170898 85.98046875 103.50170898 Z M-191.01953125 150.50170898 C-192.24969556 153.70013619 -192.2225524 154.98818491 -190.95703125 158.18920898 C-188.47664267 161.14967278 -186.82141471 161.89340763 -183.01953125 162.50170898 C-179.45506404 160.96250723 -178.19105352 159.75899239 -176.01953125 156.50170898 C-176.16915061 152.98565402 -176.66098468 151.00633009 -178.70703125 148.12670898 C-183.60015185 144.68829991 -187.61667614 145.83853716 -191.01953125 150.50170898 Z M67.98046875 154.50170898 C71.27038606 157.79162629 74.52822065 160.96257983 77.98046875 164.06420898 C78.80546875 164.80799805 79.63046875 165.55178711 80.48046875 166.31811523 C82.18989686 167.81119385 83.94314128 169.25516433 85.73046875 170.65405273 C87.98046875 172.50170898 87.98046875 172.50170898 88.98046875 174.50170898 C89.49857385 180.0713388 88.40598819 181.84216361 85.98046875 187.50170898 C92.58046875 187.50170898 99.18046875 187.50170898 105.98046875 187.50170898 C105.98046875 176.61170898 105.98046875 165.72170898 105.98046875 154.50170898 C93.44046875 154.50170898 80.90046875 154.50170898 67.98046875 154.50170898 Z M24.45703125 205.50146484 C21.50919268 209.07263876 20.90486306 212.05402332 20.35546875 216.50561523 C20.184104 217.64606544 20.184104 217.64606544 20.00927734 218.80955505 C19.52394803 222.0425595 19.08685787 225.28161123 18.64648438 228.52099609 C18.31681058 230.89374228 17.9618629 233.2617597 17.60546875 235.63061523 C17.51571777 236.3598671 17.4259668 237.08911896 17.33349609 237.84046936 C16.49400012 243.38495347 15.79548809 243.64969351 10.98046875 247.50170898 C6.03046875 247.83170898 1.08046875 248.16170898 -4.01953125 248.50170898 C-4.01953125 262.36170898 -4.01953125 276.22170898 -4.01953125 290.50170898 C26.67046875 290.50170898 57.36046875 290.50170898 88.98046875 290.50170898 C89.31046875 283.90170898 89.64046875 277.30170898 89.98046875 270.50170898 C95.60546875 264.87670898 95.60546875 264.87670898 99.84375 263.26342773 C101.1730957 262.74619141 101.1730957 262.74619141 102.52929688 262.21850586 C103.44130859 261.87883789 104.35332031 261.53916992 105.29296875 261.18920898 C106.22431641 260.83020508 107.15566406 260.47120117 108.11523438 260.10131836 C110.39938037 259.22280067 112.68746046 258.35676684 114.98046875 257.50170898 C114.98046875 257.17170898 114.98046875 256.84170898 114.98046875 256.50170898 C109.04046875 256.50170898 103.10046875 256.50170898 96.98046875 256.50170898 C96.98046875 250.56170898 96.98046875 244.62170898 96.98046875 238.50170898 C108.53046875 238.50170898 120.08046875 238.50170898 131.98046875 238.50170898 C131.98046875 225.74390627 131.21624631 218.80037392 123.0859375 209.53295898 C115.27344502 202.98469321 105.12291925 203.63406141 95.41796875 203.68920898 C93.98943573 203.68297012 93.98943573 203.68297012 92.53204346 203.67660522 C81.86344805 203.32789756 81.86344805 203.32789756 72.65283203 207.59790039 C71.13918386 209.97509529 71.13918386 209.97509529 70.35571289 212.49902344 C68.98046875 214.50170898 68.98046875 214.50170898 65.32348633 215.43774414 C60.93443955 215.74684154 57.29544398 214.62600182 53.26953125 212.97436523 C52.57532074 212.70659775 51.88111023 212.43883026 51.16586304 212.16294861 C48.97218529 211.31320024 46.78895365 210.43977437 44.60546875 209.56420898 C42.39884496 208.69737256 40.19036337 207.83550598 37.98080444 206.97618103 C36.61198043 206.44190056 35.24520855 205.90232607 33.88076782 205.35694885 C28.91954367 203.10785898 28.91954367 203.10785898 24.45703125 205.50146484 Z M-166.01953125 253.50170898 C-166.85286458 256.50170898 -166.85286458 256.50170898 -166.01953125 259.50170898 C-164.10286458 262.58504232 -164.10286458 262.58504232 -161.01953125 264.50170898 C-157.47357567 264.50170898 -155.15776984 264.22259343 -152.14453125 262.31420898 C-150.52659082 259.70752718 -150.20610547 257.54908796 -150.01953125 254.50170898 C-150.83538946 251.83162755 -151.53847237 250.83347373 -153.83203125 249.25170898 C-159.64351621 247.25919986 -162.30100773 248.61450664 -166.01953125 253.50170898 Z M-38.01953125 308.50170898 C-38.03411377 312.14097412 -38.04869629 315.78023926 -38.0637207 319.52978516 C-38.11402161 331.54393749 -38.18045811 343.55794946 -38.25524616 355.57197094 C-38.30020219 362.8572107 -38.33961724 370.1424016 -38.3659668 377.42773438 C-38.38894852 383.77800833 -38.42234833 390.12812764 -38.46823281 396.47827893 C-38.49216291 399.84032661 -38.51089298 403.20222115 -38.51714516 406.56435204 C-38.52674584 410.31868736 -38.55475827 414.07246211 -38.5871582 417.82666016 C-38.58572311 418.94012314 -38.58428802 420.05358612 -38.58280945 421.20079041 C-38.5953476 422.22577637 -38.60788574 423.25076233 -38.62080383 424.30680847 C-38.62771728 425.63833844 -38.62771728 425.63833844 -38.63477039 426.996768 C-39.52426605 432.7877264 -43.76549597 436.52381928 -47.77612305 440.46948242 C-48.35202179 441.04406693 -48.92792053 441.61865143 -49.52127075 442.21064758 C-51.41586474 444.09877748 -53.3173306 445.97982997 -55.21875 447.86108398 C-56.53776492 449.17382648 -57.85626466 450.4870868 -59.17427063 451.80084229 C-62.63717771 455.25047043 -66.10561646 458.6944779 -69.57568359 462.13690186 C-75.14190311 467.65992419 -80.70132102 473.18977364 -86.25760841 478.72278595 C-88.20305226 480.65796903 -90.15185087 482.58972699 -92.10099792 484.5211792 C-93.28448577 485.69784391 -94.46786678 486.87461608 -95.65112305 488.05151367 C-96.19810349 488.59175674 -96.74508392 489.13199982 -97.30863953 489.68861389 C-98.56468582 490.94079159 -99.7952166 492.21848846 -101.01953125 493.50170898 C-101.01953125 493.83170898 -101.01953125 494.16170898 -101.01953125 494.50170898 C-93.50056935 494.75788241 -85.98206537 494.95267163 -78.4597187 495.07164288 C-74.96538081 495.12878441 -71.47405127 495.20609888 -67.98144531 495.33154297 C-63.95480572 495.47524341 -59.93126462 495.5275203 -55.90234375 495.57592773 C-54.66340363 495.63270187 -53.4244635 495.68947601 -52.14797974 495.74797058 C-46.71956024 495.75179123 -43.35617148 495.57764027 -39.03681946 492.10076904 C-36.44900958 489.42143671 -34.22170152 486.50466229 -32.01953125 483.50170898 C-31.05712866 482.34685358 -30.08874674 481.1968967 -29.109375 480.05639648 C-28.39910156 479.17209961 -27.68882812 478.28780273 -26.95703125 477.37670898 C-23.06332687 472.5455046 -23.06332687 472.5455046 -22.01953125 471.50170898 C-21.92557068 469.568644 -21.90209608 467.6321206 -21.90600586 465.69677734 C-21.90608139 464.45556625 -21.90615692 463.21435516 -21.90623474 461.93553162 C-21.91134214 460.57087159 -21.91655815 459.20621196 -21.921875 457.84155273 C-21.92373925 456.45292715 -21.92516312 455.06430091 -21.92616272 453.67567444 C-21.92998738 450.01449784 -21.93981722 446.35336068 -21.9508667 442.69219971 C-21.96108193 438.95878635 -21.96566058 435.22536665 -21.97070312 431.49194336 C-21.98143955 424.16184514 -21.99903591 416.83178761 -22.01953125 409.50170898 C-16.07953125 409.50170898 -10.13953125 409.50170898 -4.01953125 409.50170898 C-4.01953125 422.70170898 -4.01953125 435.90170898 -4.01953125 449.50170898 C-1.70953125 447.52170898 0.60046875 445.54170898 2.98046875 443.50170898 C3.8455455 442.84144211 4.71062225 442.18117523 5.60191345 441.50090027 C11.46832659 436.02205797 12.52681648 431.20909063 12.92859745 423.40846729 C13.04696599 417.71783685 13.00255885 412.03762971 12.89301419 406.34716821 C12.83632384 402.90138058 12.83143249 399.45550514 12.82078552 396.00932312 C12.7929358 389.49957385 12.71925447 382.99120302 12.62864012 376.48205775 C12.5276524 369.06496902 12.47846228 361.64781054 12.4333812 354.23020422 C12.33958798 338.98644087 12.17470247 323.74457373 11.98046875 308.50170898 C-4.51953125 308.50170898 -21.01953125 308.50170898 -38.01953125 308.50170898 Z M29.98046875 308.50170898 C29.98046875 339.19170898 29.98046875 369.88170898 29.98046875 401.50170898 C46.48046875 401.50170898 62.98046875 401.50170898 79.98046875 401.50170898 C80.44160177 396.84541614 80.44160177 396.84541614 78.81704712 394.75047302 C78.27236786 394.22292923 77.7276886 393.69538544 77.16650391 393.15185547 C76.55231598 392.54450058 75.93812805 391.93714569 75.30532837 391.31138611 C74.63351532 390.67165359 73.96170227 390.03192108 73.26953125 389.37280273 C72.5861972 388.70128677 71.90286316 388.02977081 71.19882202 387.33790588 C69.01253809 385.19284995 66.81015761 383.06533058 64.60546875 380.93920898 C62.41056281 378.80703524 60.21932431 376.67132342 58.03353882 374.52980042 C56.6727514 373.19818145 55.30625161 371.87236942 53.9335022 370.55308533 C53.31300995 369.9488826 52.6925177 369.34467987 52.05322266 368.72216797 C51.50695221 368.19541977 50.96068176 367.66867157 50.39785767 367.1259613 C47.35354899 363.63734546 46.72701629 360.7600369 46.66162109 356.18237305 C46.6417514 355.12157532 46.62188171 354.06077759 46.60140991 352.96783447 C46.5898587 351.82916931 46.5783075 350.69050415 46.56640625 349.51733398 C46.5470401 348.34660339 46.52767395 347.1758728 46.50772095 345.96966553 C46.44794168 342.23042079 46.40154575 338.49114525 46.35546875 334.75170898 C46.31728751 332.21653931 46.2782357 329.68138258 46.23828125 327.14624023 C46.14224123 320.93150167 46.05820357 314.71670238 45.98046875 308.50170898 C40.70046875 308.50170898 35.42046875 308.50170898 29.98046875 308.50170898 Z M63.98046875 308.50170898 C60.01860948 337.47060465 60.01860948 337.47060465 69.1015625 363.74389648 C74.29117296 369.51359331 80.48044057 374.29788641 86.98046875 378.50170898 C89.47389198 375.46430859 91.74510723 372.43879531 93.77734375 369.07592773 C94.50244141 367.88193359 94.50244141 367.88193359 95.2421875 366.66381836 C95.73332031 365.84719727 96.22445312 365.03057617 96.73046875 364.18920898 C97.23707031 363.35325195 97.74367188 362.51729492 98.265625 361.65600586 C99.50706668 359.60645591 100.74523942 357.55500685 101.98046875 355.50170898 C99.28724966 353.3123234 96.63934361 351.27866563 93.73046875 349.37670898 C90.98046875 347.50170898 90.98046875 347.50170898 89.98046875 345.50170898 C89.82354968 342.7323953 89.72203741 339.98436792 89.6640625 337.21264648 C89.6432814 336.39422272 89.62250031 335.57579895 89.60108948 334.73257446 C89.53562063 332.11403933 89.47672149 329.4954026 89.41796875 326.87670898 C89.37478099 325.10326091 89.33116661 323.32982317 89.28710938 321.55639648 C89.17913776 317.20493667 89.08004497 312.85340151 88.98046875 308.50170898 C80.73046875 308.50170898 72.48046875 308.50170898 63.98046875 308.50170898 Z M29.98046875 419.50170898 C30.01269531 420.8178418 30.04492188 422.13397461 30.078125 423.48999023 C30.102811 433.46313565 29.97113055 440.55881446 22.64453125 448.00170898 C21.76539063 448.82670898 20.88625 449.65170898 19.98046875 450.50170898 C18.59017468 451.97107666 17.23059496 453.46495154 15.87280273 454.96435547 C14.48195831 456.50006428 13.07338974 458.01812808 11.6640625 459.53686523 C9.18917104 462.27113397 6.85085282 465.06374402 4.54296875 467.93920898 C0.67758439 472.75008305 -3.42464105 477.27430211 -7.68334961 481.73583984 C-11.54002337 485.82241185 -14.5840234 489.92103185 -18.01953125 494.50170898 C3.10046875 494.50170898 24.22046875 494.50170898 45.98046875 494.50170898 C45.98046875 469.75170898 45.98046875 445.00170898 45.98046875 419.50170898 C40.70046875 419.50170898 35.42046875 419.50170898 29.98046875 419.50170898 Z M63.98046875 419.50170898 C63.98046875 444.25170898 63.98046875 469.00170898 63.98046875 494.50170898 C84.44046875 494.50170898 104.90046875 494.50170898 125.98046875 494.50170898 C121.09405431 488.77175758 121.09405431 488.77175758 115.93457031 483.38989258 C115.20071106 482.66579193 114.46685181 481.94169128 113.71075439 481.19564819 C112.93866638 480.43813263 112.16657837 479.68061707 111.37109375 478.90014648 C109.71325612 477.25981002 108.05571263 475.61917624 106.3984375 473.97827148 C103.80547443 471.41635891 101.21026025 468.85685819 98.60986328 466.30249023 C96.08602856 463.82093319 93.57169265 461.33006883 91.05859375 458.83764648 C90.27840881 458.07608246 89.49822388 457.31451843 88.69439697 456.52987671 C87.97314636 455.81208038 87.25189575 455.09428406 86.50878906 454.35473633 C85.87402649 453.72965179 85.23926392 453.10456726 84.58526611 452.46054077 C81.26468342 448.40740417 80.71766202 444.44341447 80.56640625 439.32592773 C80.52773438 438.16899414 80.4890625 437.01206055 80.44921875 435.82006836 C80.41828125 434.62188477 80.38734375 433.42370117 80.35546875 432.18920898 C80.31679688 430.97168945 80.278125 429.75416992 80.23828125 428.49975586 C80.1441917 425.50065156 80.06124884 422.50120128 79.98046875 419.50170898 C74.70046875 419.50170898 69.42046875 419.50170898 63.98046875 419.50170898 Z " fill="#000000" transform="translate(220.01953125,-0.501708984375)"/>
<path d="M0 0 C6.54802282 6.90023921 8.98495538 15.2568146 10.03515625 24.55859375 C9.5459357 34.48569406 5.67308625 43.74827128 -1.40234375 50.68359375 C-8.46533515 56.75856745 -17.73241689 60.49291766 -27.1796875 60.02734375 C-37.67138653 58.40472597 -46.45318421 54.80604543 -53.21484375 46.44140625 C-59.3414418 37.69333115 -61.55988275 28.09282217 -59.71484375 17.49609375 C-57.34501915 7.47602999 -52.36516179 0.54731714 -43.69921875 -4.9609375 C-29.31493703 -13.44962076 -12.25310084 -11.19246796 0 0 Z M-39.83984375 15.80859375 C-42.06587083 20.29919383 -42.17328806 24.79045739 -41.40234375 29.68359375 C-39.61015064 34.97962508 -36.37020049 38.19966538 -31.40234375 40.68359375 C-27.05699654 41.96684293 -24.0736165 41.88838883 -19.71484375 40.55859375 C-13.68359611 37.14467999 -10.43710805 33.35309895 -8.40234375 26.68359375 C-8.40234375 20.35415021 -9.96558505 16.24091655 -14.40234375 11.68359375 C-23.03901843 5.45715386 -33.54362125 7.73651362 -39.83984375 15.80859375 Z " fill="#000000" transform="translate(236.40234375,120.31640625)"/>
<path d="M0 0 C2.18554688 1.57421875 2.18554688 1.57421875 4 4 C4.3982295 6.70194958 4.56200004 8.98914572 4.53125 11.6875 C4.5350769 12.42701904 4.53890381 13.16653809 4.54284668 13.9284668 C4.54556271 15.4884579 4.53822292 17.04849478 4.52148438 18.60839844 C4.50006673 20.99257186 4.52129263 23.37373249 4.546875 25.7578125 C4.54423166 27.2760483 4.53910656 28.79428223 4.53125 30.3125 C4.53934692 31.02301514 4.54744385 31.73353027 4.55578613 32.46557617 C4.4909368 35.89865432 4.24673244 37.68735439 2.09179688 40.41796875 C-2.96795308 44.2446704 -8.97194304 43.29921138 -15.06591797 43.35009766 C-16.51497501 43.36661943 -17.96395181 43.39386032 -19.41259766 43.43212891 C-21.5098667 43.48720676 -23.60522788 43.50881703 -25.703125 43.5234375 C-27.58499512 43.5531665 -27.58499512 43.5531665 -29.50488281 43.58349609 C-34.12543765 42.8121126 -35.71989375 41.28597738 -39 38 C-39.76171875 35.9375 -39.76171875 35.9375 -39.6875 34 C-39.69136719 33.360625 -39.69523437 32.72125 -39.69921875 32.0625 C-38.51859163 28.57997979 -36.96668913 27.17083928 -34 25 C-30.53914221 24.39872265 -27.18664304 24.52676198 -23.6875 24.6875 C-22.75615234 24.71005859 -21.82480469 24.73261719 -20.86523438 24.75585938 C-18.5751604 24.81457922 -16.28842125 24.89663142 -14 25 C-14.05220703 23.15535156 -14.05220703 23.15535156 -14.10546875 21.2734375 C-14.13362045 19.64063873 -14.16091913 18.0078251 -14.1875 16.375 C-14.21263672 15.56675781 -14.23777344 14.75851563 -14.26367188 13.92578125 C-14.32569755 8.83967569 -13.81749611 5.41568461 -11 1 C-7.51811815 -1.86011723 -4.17847912 -1.04461978 0 0 Z " fill="#000000" transform="translate(442,171)"/>
<path d="M0 0 C5.94 0 11.88 0 18 0 C18 11.55 18 23.1 18 35 C12.06 35 6.12 35 0 35 C0 23.45 0 11.9 0 0 Z " fill="#000000" transform="translate(360,85)"/>
<path d="M0 0 C5.94 0 11.88 0 18 0 C18 5.94 18 11.88 18 18 C12.06 18 6.12 18 0 18 C0 12.06 0 6.12 0 0 Z " fill="#000000" transform="translate(198,375)"/>
<path d="M0 0 C5.94 0 11.88 0 18 0 C18 5.94 18 11.88 18 18 C12.06 18 6.12 18 0 18 C0 12.06 0 6.12 0 0 Z " fill="#000000" transform="translate(198,341)"/>
<path d="M0 0 C5.94 0 11.88 0 18 0 C18 5.94 18 11.88 18 18 C12.06 18 6.12 18 0 18 C0 12.06 0 6.12 0 0 Z " fill="#000000" transform="translate(283,238)"/>
<path d="M0 0 C5.94 0 11.88 0 18 0 C18 5.94 18 11.88 18 18 C12.06 18 6.12 18 0 18 C0 12.06 0 6.12 0 0 Z " fill="#000000" transform="translate(249,238)"/>
<path d="M0 0 C5.94 0 11.88 0 18 0 C18 5.94 18 11.88 18 18 C12.06 18 6.12 18 0 18 C0 12.06 0 6.12 0 0 Z " fill="#000000" transform="translate(360,170)"/>
<path d="M0 0 C5.94 0 11.88 0 18 0 C18 5.94 18 11.88 18 18 C12.06 18 6.12 18 0 18 C0 12.06 0 6.12 0 0 Z " fill="#000000" transform="translate(360,136)"/>
</svg>
