<?xml version="1.0" encoding="UTF-8"?>
<svg version="1.1" xmlns="http://www.w3.org/2000/svg" width="512" height="512">
<path d="M0 0 C4.9328901 3.88356918 8.8763907 8.36276615 10.78125 14.40234375 C11.7155989 23.30899429 10.60683933 30.08537604 4.90625 37.15234375 C3.07371843 39.29530416 1.82764078 40.38046367 -0.75463867 41.59838867 C-3.48171744 43.21172751 -3.48171744 43.21172751 -4.07202148 46.30297852 C-4.36625486 50.19292078 -4.60176689 54.06476572 -4.65625 57.96484375 C-4.66977509 58.66364655 -4.68330017 59.36244934 -4.69723511 60.08242798 C-4.74633532 69.13809554 -3.56812701 75.89728328 2.79077148 82.81811523 C8.98585067 88.61451662 15.49391122 93.98588502 23.78125 96.40234375 C27.6865234 96.26787236 30.73044465 94.60443884 34.21875 92.90234375 C38.09246561 91.08588521 41.46563552 89.75225844 45.78125 89.40234375 C45.95140625 88.84546875 46.1215625 88.28859375 46.296875 87.71484375 C50.72410714 73.77377232 50.72410714 73.77377232 55.78125 70.40234375 C58.04296875 70.20703125 58.04296875 70.20703125 60.46875 70.27734375 C61.27699219 70.29539062 62.08523437 70.3134375 62.91796875 70.33203125 C63.53285156 70.35523437 64.14773437 70.3784375 64.78125 70.40234375 C64.84580863 66.02580659 64.82152665 61.65407303 64.78125 57.27734375 C64.81025391 55.42109375 64.81025391 55.42109375 64.83984375 53.52734375 C64.92653811 46.95002874 64.92653811 46.95002874 62.03686523 41.32592773 C59.96119021 39.74126475 59.96119021 39.74126475 57.78295898 38.5871582 C53.64488912 36.13782864 51.27578857 31.88595947 49.78125 27.40234375 C49.14177303 19.73910338 48.85463152 12.66010984 53.78125 6.40234375 C58.49023075 1.44759156 62.8587155 -2.16572543 69.83203125 -2.93359375 C78.05694911 -3.03209576 83.63447093 -2.46469229 89.75 3.23828125 C95.6414273 9.54017685 97.29530601 15.02127267 97.0859375 23.59375 C96.23492196 31.43836758 92.58392849 36.19316676 86.68359375 41.1875 C84.78125 42.40234375 84.78125 42.40234375 81.78125 42.40234375 C81.78125 51.64234375 81.78125 60.88234375 81.78125 70.40234375 C84.75125 70.40234375 87.72125 70.40234375 90.78125 70.40234375 C95.57179744 73.34199786 96.1252308 76.55963581 97.65625 81.83984375 C99.13376599 86.0667827 100.31150368 88.4906287 104.29296875 90.51171875 C108.03735883 92.08933925 111.89331783 93.23379207 115.78125 94.40234375 C117.11682043 95.06451733 118.45103183 95.72948281 119.78125 96.40234375 C129.85738349 95.84255856 139.76339841 87.16075275 146.24609375 80.08203125 C151.223795 73.39467868 151.398728 66.22916798 151.34375 58.21484375 C151.34850342 57.52877045 151.35325684 56.84269714 151.3581543 56.13583374 C151.42479006 48.13842205 151.42479006 48.13842205 147.97363281 41.23608398 C145.97350784 39.7423746 143.97212161 38.58701878 141.78125 37.40234375 C136.10479114 31.2777434 135.3111081 25.77822517 135.4765625 17.625 C136.20426586 9.92813753 139.95583499 5.74414982 145.68359375 0.84765625 C151.69600651 -3.29497451 157.70835988 -3.19098791 164.78125 -2.59765625 C171.14108286 -0.72098426 176.42465175 2.84665286 180.109375 8.40625 C183.45765685 14.99670618 183.97803293 21.70497077 182.15625 28.85546875 C179.91540039 34.73769898 176.0854117 39.01508648 170.78125 42.40234375 C169.79125 42.40234375 168.80125 42.40234375 167.78125 42.40234375 C167.81790771 43.541875 167.85456543 44.68140625 167.89233398 45.85546875 C168.01970775 50.1117454 168.09963571 54.36785627 168.16577148 58.62548828 C168.20082274 60.46269117 168.24848026 62.29970091 168.30932617 64.13623047 C168.86600943 81.37937752 168.86600943 81.37937752 164.59375 86.30859375 C163.35658298 87.38000015 162.08689993 88.41554479 160.78125 89.40234375 C159.80976755 90.3777441 158.85134809 91.36643366 157.91015625 92.37109375 C157.06324219 93.20640625 156.21632812 94.04171875 155.34375 94.90234375 C154.47878906 95.75828125 153.61382812 96.61421875 152.72265625 97.49609375 C152.08199219 98.12515625 151.44132813 98.75421875 150.78125 99.40234375 C154.87956482 104.34133853 159.18351589 108.76454628 163.92578125 113.09375 C166.27096261 116.01164933 166.72582837 117.66138355 166.78125 121.40234375 C165.62918937 124.51535865 164.29783712 127.33701998 162.78710938 130.27929688 C161.01906068 133.92972189 161.01906068 133.92972189 161.4609375 137.83984375 C161.89664063 138.68546875 162.33234375 139.53109375 162.78125 140.40234375 C163.10480469 141.64886719 163.42835938 142.89539063 163.76171875 144.1796875 C165.67608895 151.78398165 165.67608895 151.78398165 170.48046875 157.66259766 C173.68915901 159.29216322 176.95832803 160.30943175 180.41796875 161.26171875 C183.78125 162.40234375 183.78125 162.40234375 185.73828125 163.98046875 C187.34754601 167.71733822 187.01257359 171.39273488 186.78125 175.40234375 C187.96098389 175.37877808 187.96098389 175.37877808 189.16455078 175.35473633 C192.74504338 175.2921846 196.32542076 175.25328824 199.90625 175.21484375 C201.14375 175.18970703 202.38125 175.16457031 203.65625 175.13867188 C205.45449219 175.12416992 205.45449219 175.12416992 207.2890625 175.109375 C208.93865967 175.08580933 208.93865967 175.08580933 210.62158203 175.06176758 C214.2672824 175.4547325 216.65666367 176.51271844 219.78125 178.40234375 C221.24614545 181.33213466 220.83514671 183.90132301 220.78125 187.16796875 C220.78009108 188.54687513 220.78147502 189.92578555 220.78515625 191.3046875 C220.78956729 193.47639176 220.78145275 195.64379138 220.72998047 197.81494141 C220.23917703 206.29744646 220.23917703 206.29744646 223.74609375 213.57299805 C226.09357082 215.15497161 226.09357082 215.15497161 228.5546875 216.22241211 C232.60676524 218.36974672 234.24223274 222.23388446 235.78125 226.40234375 C237.7570653 234.09624702 236.46573996 240.71731795 232.65625 247.58984375 C229.27706776 252.69884548 224.51175774 255.4921745 218.78125 257.40234375 C210.42369449 258.29279867 203.64846345 257.47332877 196.78125 252.40234375 C191.54832967 247.11514002 188.78766727 241.49000785 188.46875 234.02734375 C188.70143034 225.86984478 191.95802134 220.0132672 197.78125 214.40234375 C200.78125 212.40234375 200.78125 212.40234375 203.78125 212.40234375 C203.78125 205.80234375 203.78125 199.20234375 203.78125 192.40234375 C198.17125 192.40234375 192.56125 192.40234375 186.78125 192.40234375 C186.843125 193.96984375 186.905 195.53734375 186.96875 197.15234375 C187.08460792 200.08741095 187.01277844 201.92293356 185.73046875 204.578125 C183.48448118 206.6800813 181.35421978 207.36001288 178.43652344 208.22631836 C173.41376998 209.74413695 169.74465733 210.93645338 166.7890625 215.43359375 C165.57099499 218.73221134 164.66274506 222.00057418 163.78125 225.40234375 C163.19085938 226.53671875 162.60046875 227.67109375 161.9921875 228.83984375 C160.65448815 232.77526894 161.00512682 234.3273387 162.69921875 238.05664062 C163.17294922 239.00120117 163.17294922 239.00120117 163.65625 239.96484375 C166.01119141 244.80774628 167.32272197 248.04634634 165.78125 253.40234375 C164.14177758 255.4780111 162.61547023 257.17883428 160.72265625 258.984375 C160.21830551 259.48402267 159.71395477 259.98367035 159.19432068 260.49845886 C157.58884447 262.08268117 155.96654973 263.6483929 154.34375 265.21484375 C153.25607237 266.28600462 152.16947145 267.35825996 151.08398438 268.43164062 C142.05951024 277.30221076 142.05951024 277.30221076 137.58984375 277.65234375 C133.33358078 277.37295828 130.64994491 276.28582164 126.84375 274.40234375 C125.70035156 273.84546875 124.55695313 273.28859375 123.37890625 272.71484375 C122.52167969 272.28171875 121.66445312 271.84859375 120.78125 271.40234375 C121.07370605 271.98201904 121.36616211 272.56169434 121.66748047 273.15893555 C122.99919832 275.80150538 124.32775075 278.44565446 125.65625 281.08984375 C126.11644531 282.00185547 126.57664063 282.91386719 127.05078125 283.85351562 C127.71787109 285.18286133 127.71787109 285.18286133 128.3984375 286.5390625 C129.01114502 287.75662231 129.01114502 287.75662231 129.63623047 288.9987793 C130.79487003 291.4309342 131.80796178 293.89094745 132.78125 296.40234375 C137.1059711 296.45730446 141.42665672 296.45977372 145.7512207 296.41455078 C147.2206125 296.40646209 148.69015462 296.4124738 150.15942383 296.43310547 C158.52118338 296.91452595 158.52118338 296.91452595 165.74023438 293.65795898 C166.95500338 291.61864919 167.85969712 289.58507055 168.78125 287.40234375 C170.9140625 285.5625 170.9140625 285.5625 172.90625 284.46484375 C173.56882813 284.08457031 174.23140625 283.70429688 174.9140625 283.3125 C181.31271596 280.1934911 188.89259463 280.54995364 195.59375 282.52734375 C202.43105458 286.54928762 206.46333613 290.16802888 209.125 297.8203125 C210.89247595 304.77448873 210.18958371 311.07626981 206.78125 317.40234375 C203.06738072 323.23502307 198.48476233 326.63715555 191.78125 328.40234375 C185.15283069 329.23325671 178.60249249 328.91473901 172.78125 325.40234375 C168.82384805 322.16446943 166.00061084 319.00486689 163.78125 314.40234375 C162.6260083 314.39299805 161.4707666 314.38365234 160.28051758 314.37402344 C155.98439318 314.33407765 151.68898144 314.26830629 147.39331055 314.19482422 C145.53598197 314.16664116 143.67853405 314.14541335 141.82104492 314.13134766 C139.14700339 314.10988091 136.47439265 314.06321306 133.80078125 314.01171875 C132.5598748 314.00987579 132.5598748 314.00987579 131.29389954 314.00799561 C127.52474267 313.91276292 125.2726396 313.68409528 121.953125 311.78076172 C119.41229733 308.99830407 117.67726497 306.08490973 116.01171875 302.73828125 C115.68585281 302.10499908 115.35998688 301.47171692 115.02424622 300.81924438 C114.34249573 299.48904905 113.66627599 298.1560059 112.99536133 296.8203125 C111.96550133 294.77087885 110.91891977 292.73069718 109.86914062 290.69140625 C109.20734914 289.39503321 108.54650765 288.09817466 107.88671875 286.80078125 C107.57429733 286.18931244 107.26187592 285.57784363 106.93998718 284.94784546 C104.78125 280.63649137 104.78125 280.63649137 104.78125 278.40234375 C102.80964781 278.88649412 102.80964781 278.88649412 100.78125 280.40234375 C99.62498534 282.89698475 98.66687564 285.25352491 97.78125 287.83984375 C94.92471491 296.1347822 94.92471491 296.1347822 90.78125 298.40234375 C88.07922818 298.71860626 85.6124751 298.87034738 82.91015625 298.87109375 C82.15081284 298.87870728 81.39146942 298.8863208 80.6091156 298.89416504 C79.00628948 298.9049494 77.40339318 298.90782588 75.80053711 298.90332031 C73.35475903 298.90234813 70.91212198 298.94397742 68.46679688 298.98828125 C66.90625652 298.99348889 65.3457053 298.99617643 63.78515625 298.99609375 C63.05792862 299.01248901 62.33070099 299.02888428 61.58143616 299.04577637 C57.67168703 298.99285252 55.95082423 298.53802015 52.86230469 296.06689453 C50.4959987 293.03711232 49.56194348 290.44946084 48.46875 286.77734375 C47.02808566 282.39812689 47.02808566 282.39812689 44.07421875 279.06640625 C42.15464355 278.36012175 42.15464355 278.36012175 40.09765625 277.94921875 C36.2639162 277.04411992 32.89832516 275.05754224 29.39453125 273.29296875 C24.71625859 271.69857986 21.18070317 273.55329567 16.84375 275.46484375 C9.65997477 278.32986489 9.65997477 278.32986489 5.78125 277.40234375 C-0.28443156 272.81016299 -5.71535704 267.20567272 -11.15625 261.90234375 C-12.30577148 260.82146484 -12.30577148 260.82146484 -13.47851562 259.71875 C-16.76800673 256.49627244 -18.93639891 254.23843192 -20.42578125 249.828125 C-20.1769205 245.71018387 -18.79805249 242.6976217 -16.96875 239.08984375 C-14.64814295 234.01047286 -14.64814295 234.01047286 -14.82421875 228.5234375 C-16.11433281 225.99935957 -16.11433281 225.99935957 -17.75390625 223.67578125 C-19.3349165 221.22205334 -19.63493192 219.4998539 -20.09375 216.65234375 C-20.63504745 214.34980198 -20.63504745 214.34980198 -22.21875 212.40234375 C-25.98827646 210.42700837 -29.71845683 209.0156721 -33.75 207.69140625 C-38.4706297 205.93711819 -38.4706297 205.93711819 -40.21875 203.40234375 C-42.05163323 197.92060554 -41.44336068 191.84953743 -41.45898438 186.13061523 C-41.46870259 183.9753579 -41.49975732 181.82104999 -41.53125 179.66601562 C-41.53777985 178.28776604 -41.5430304 176.90950969 -41.546875 175.53125 C-41.5562207 174.2841626 -41.56556641 173.0370752 -41.57519531 171.75219727 C-41.19122368 168.14365293 -40.36925935 166.28807562 -38.21875 163.40234375 C-36.45703125 162.14453125 -36.45703125 162.14453125 -34.53125 161.27734375 C-33.90863281 160.98601562 -33.28601563 160.6946875 -32.64453125 160.39453125 C-30.21875 159.40234375 -30.21875 159.40234375 -28.28637695 158.890625 C-24.10176945 157.69169307 -24.10176945 157.69169307 -21.02905273 154.77490234 C-20.11700059 152.76013585 -19.42406709 150.76804205 -18.78125 148.65234375 C-18.53955078 147.96140625 -18.29785156 147.27046875 -18.04882812 146.55859375 C-15.28560942 138.62990247 -15.28560942 138.62990247 -16.25 130.55859375 C-16.97703125 129.24375 -16.97703125 129.24375 -17.71875 127.90234375 C-19.37022655 124.50197208 -20.20977218 122.53476666 -20.46875 118.71484375 C-18.68215841 113.98037603 -15.75127407 110.95568819 -12.21875 107.40234375 C-11.55230469 106.72171875 -10.88585937 106.04109375 -10.19921875 105.33984375 C-8.55396962 103.67784056 -6.89512397 102.03285947 -5.21875 100.40234375 C-6.53182249 97.48887782 -7.93056588 95.45724585 -10.22265625 93.23828125 C-11.08600586 92.39136719 -11.08600586 92.39136719 -11.96679688 91.52734375 C-12.86495117 90.66109375 -12.86495117 90.66109375 -13.78125 89.77734375 C-14.97224384 88.62074224 -16.16115005 87.46198597 -17.34765625 86.30078125 C-17.87431885 85.79208496 -18.40098145 85.28338867 -18.94360352 84.75927734 C-22.17600018 81.31955675 -21.34349179 77.09841377 -21.31640625 72.67578125 C-21.3149913 71.81296539 -21.31357635 70.95014954 -21.31211853 70.06118774 C-21.30651188 67.29987145 -21.29395827 64.53863563 -21.28125 61.77734375 C-21.27623586 59.90755325 -21.2716728 58.03776149 -21.26757812 56.16796875 C-21.25654029 51.57939598 -21.2392712 46.99088352 -21.21875 42.40234375 C-22.15364258 42.18868164 -22.15364258 42.18868164 -23.10742188 41.97070312 C-27.66057566 40.74501603 -30.99749868 37.23600097 -33.55859375 33.390625 C-37.1215658 26.32807898 -37.32895706 19.2554153 -35.15625 11.71484375 C-31.86586424 6.08934552 -27.80566331 0.02970884 -21.36328125 -2.1953125 C-14.17074921 -3.54473108 -6.44447223 -3.83664554 0 0 Z M-17.59375 15.96484375 C-19.56234806 18.41693633 -19.56234806 18.41693633 -19.15625 22.02734375 C-18.5436655 25.65751299 -18.5436655 25.65751299 -15.21875 27.40234375 C-11.64698885 27.32066886 -11.64698885 27.32066886 -8.21875 26.40234375 C-5.85735698 23.50772474 -5.85735698 23.50772474 -6.40625 19.83984375 C-6.86714762 16.14408623 -6.86714762 16.14408623 -10.21875 14.40234375 C-13.49810719 13.89782726 -14.80040416 14.12711622 -17.59375 15.96484375 Z M68.40625 15.96484375 C66.43765194 18.41693633 66.43765194 18.41693633 66.84375 22.02734375 C67.4563345 25.65751299 67.4563345 25.65751299 70.78125 27.40234375 C74.06060719 27.90686024 75.36290416 27.67757128 78.15625 25.83984375 C80.12484806 23.38775117 80.12484806 23.38775117 79.71875 19.77734375 C79.1061655 16.14717451 79.1061655 16.14717451 75.78125 14.40234375 C72.50189281 13.89782726 71.19959584 14.12711622 68.40625 15.96484375 Z M154.40625 15.96484375 C152.43765194 18.41693633 152.43765194 18.41693633 152.84375 22.02734375 C153.4563345 25.65751299 153.4563345 25.65751299 156.78125 27.40234375 C160.11704974 27.91554371 161.33968891 27.72456401 164.09375 25.71484375 C165.93815442 23.52695744 165.93815442 23.52695744 166.28125 20.90234375 C165.61372946 17.56474105 164.51376347 16.39634006 161.78125 14.40234375 C158.45750617 13.73759498 157.24122394 14.09972932 154.40625 15.96484375 Z M64.78125 87.40234375 C63.01371195 91.86760153 63.01371195 91.86760153 61.2824707 96.34692383 C59.52535169 100.61141309 57.98683294 102.54840334 53.78125 104.40234375 C51.94384101 105.05570399 50.08766859 105.65798229 48.21875 106.21484375 C43.70014146 107.64323538 39.70190765 109.40579178 35.53125 111.65234375 C30.41790149 114.27218681 27.47883121 115.33637346 21.78125 114.40234375 C19.39686263 113.43827365 17.12795738 112.39150219 14.859375 111.1796875 C12.22409404 110.19393391 11.34498368 110.23701026 8.78125 111.40234375 C6.1205245 113.69976474 6.1205245 113.69976474 3.53125 116.46484375 C2.63921875 117.38394531 1.7471875 118.30304688 0.828125 119.25 C-0.18507813 120.31541016 -0.18507813 120.31541016 -1.21875 121.40234375 C-0.84621094 122.24796875 -0.47367188 123.09359375 -0.08984375 123.96484375 C5.09118058 136.38800836 5.09118058 136.38800836 2.78125 142.40234375 C1.41324398 145.29114608 0.00551647 148.14096559 -1.49267578 150.96386719 C-4.04377148 155.81081879 -5.70806765 160.66835272 -7.1015625 165.9765625 C-9.78353406 171.80000424 -18.71575296 173.94920049 -24.21875 176.40234375 C-24.21875 181.68234375 -24.21875 186.96234375 -24.21875 192.40234375 C-22.341875 193.12421875 -20.465 193.84609375 -18.53125 194.58984375 C-13.68430325 196.45405404 -10.52375958 198.34827491 -7.21875 202.40234375 C-5.84765625 205.78515625 -5.84765625 205.78515625 -4.78125 209.52734375 C-3.29293562 214.53771682 -1.59282357 218.78232277 1.15625 223.27734375 C3.59773976 227.53736583 4.4358769 230.28269652 3.48046875 235.12109375 C2.18901287 239.33455874 0.58497534 243.38381148 -1.21875 247.40234375 C0.49288283 249.27584729 2.22232553 251.12426032 3.96875 252.96484375 C4.69288086 253.76438477 4.69288086 253.76438477 5.43164062 254.58007812 C7.04077794 256.32041015 7.04077794 256.32041015 9.78125 258.40234375 C13.15592325 258.32293967 15.0127452 257.2931479 18.09375 255.83984375 C22.81385472 253.99980293 27.04099191 253.46982552 31.85961914 255.10961914 C33.99923736 256.07836479 36.07698023 257.12274531 38.15625 258.21484375 C42.92208796 260.61463709 47.37765328 262.76400977 52.59375 264.02734375 C55.94803619 264.94111714 56.6745303 265.28719881 59.15625 267.96484375 C61.24368463 272.38057085 63.05233544 276.83306956 64.78125 281.40234375 C70.39125 281.40234375 76.00125 281.40234375 81.78125 281.40234375 C83.54878805 276.93708597 83.54878805 276.93708597 85.2800293 272.45776367 C87.05275171 268.15540529 88.55414659 266.27841774 92.78125 264.40234375 C95.37821116 263.37614729 97.96486126 262.39908201 100.59375 261.46484375 C104.98079849 259.88008187 109.20155736 258.31555459 113.28125 256.02734375 C117.28388281 254.16897852 120.48252213 253.55550242 124.78125 254.40234375 C127.17360646 255.35533202 129.43194718 256.4117989 131.703125 257.625 C134.33840596 258.61075359 135.21751632 258.56767724 137.78125 257.40234375 C140.4419755 255.10492276 140.4419755 255.10492276 143.03125 252.33984375 C143.92328125 251.42074219 144.8153125 250.50164062 145.734375 249.5546875 C146.40984375 248.84441406 147.0853125 248.13414062 147.78125 247.40234375 C147.4203125 246.53351563 147.059375 245.6646875 146.6875 244.76953125 C146.2234375 243.61710938 145.759375 242.4646875 145.28125 241.27734375 C144.8171875 240.14039063 144.353125 239.0034375 143.875 237.83203125 C142.32141394 232.96042925 142.10311349 229.98140514 144.13671875 225.24609375 C144.74128906 224.14265625 145.34585938 223.03921875 145.96875 221.90234375 C149.21039923 215.83602771 151.49360982 209.84593021 153.54296875 203.265625 C155.35928151 199.06575986 157.44601939 197.95993307 161.578125 196.234375 C164.3125 195.29036458 167.046875 194.34635417 169.78125 193.40234375 C169.78125 187.46234375 169.78125 181.52234375 169.78125 175.40234375 C167.698125 174.65984375 165.615 173.91734375 163.46875 173.15234375 C155.98212577 170.48384403 155.98212577 170.48384403 153.78125 166.40234375 C152.70950709 163.70829232 151.80230202 160.9715584 150.90625 158.21484375 C149.26509115 153.29292476 147.6505102 148.80403175 144.84375 144.40234375 C142.60721016 140.64351389 142.34434832 138.04240599 143.1171875 133.75390625 C144.32117647 129.49036882 145.96896531 125.43994546 147.78125 121.40234375 C146.06961717 119.52884021 144.34017447 117.68042718 142.59375 115.83984375 C141.86961914 115.04030273 141.86961914 115.04030273 141.13085938 114.22460938 C139.52172206 112.48427735 139.52172206 112.48427735 136.78125 110.40234375 C133.40657675 110.48174783 131.5497548 111.5115396 128.46875 112.96484375 C123.74864528 114.80488457 119.52150809 115.33486198 114.70288086 113.69506836 C112.56326264 112.72632271 110.48551977 111.68194219 108.40625 110.58984375 C103.64041204 108.19005041 99.18484672 106.04067773 93.96875 104.77734375 C90.61446381 103.86357036 89.8879697 103.51748869 87.40625 100.83984375 C85.31881537 96.42411665 83.51016456 91.97161794 81.78125 87.40234375 C76.17125 87.40234375 70.56125 87.40234375 64.78125 87.40234375 Z M207.34375 229.58984375 C205.55595722 232.24881714 205.55595722 232.24881714 205.84375 235.02734375 C207.10804826 238.30166219 207.10804826 238.30166219 209.78125 240.40234375 C214.82690002 240.21096891 214.82690002 240.21096891 218.78125 237.40234375 C219.2452946 232.7400549 219.2452946 232.7400549 217.65625 228.46484375 C213.62687091 226.18152893 210.73704725 226.54457699 207.34375 229.58984375 Z M179.78125 301.40234375 C179.11444632 304.35955003 179.11444632 304.35955003 179.78125 307.40234375 C181.76011061 310.18740683 182.94057233 311.21319127 186.28125 311.96484375 C188.99213498 311.57355194 188.99213498 311.57355194 191.15625 309.21484375 C193.0130695 306.56463314 193.0130695 306.56463314 192.71875 303.77734375 C191.702361 301.20249162 191.07218722 299.95690829 188.78125 298.40234375 C184.83112882 297.7946328 182.47870905 298.40516703 179.78125 301.40234375 Z " fill="#000000" transform="translate(48.21875,40.59765625)"/>
<path d="M0 0 C0.86246338 0.26248535 1.72492676 0.5249707 2.61352539 0.79541016 C11.02354469 3.46720203 18.70963719 7.0976429 26.375 11.4375 C26.95862305 11.76508301 27.54224609 12.09266602 28.14355469 12.43017578 C60.32573211 30.72752142 80.17117244 59.68615826 90.60888672 94.59667969 C93.49362597 105.29356495 94.50180122 116.10887638 94.33203125 127.16015625 C94.31690994 128.17666763 94.31690994 128.17666763 94.30148315 129.2137146 C94.25576587 132.01473129 94.20670539 134.81516592 94.12817383 137.61547852 C93.89648485 146.33973205 94.22629828 153.58888575 98.375 161.4375 C98.88160156 162.47519531 99.38820313 163.51289063 99.91015625 164.58203125 C103.17124436 170.27850997 106.76092437 175.26018869 111.0625 180.1875 C117.22351007 187.27338739 121.18124484 192.44789367 120.6796875 202.125 C119.66882514 209.79718611 114.0886839 213.84171077 108.375 218.4375 C106.89 219.4275 106.89 219.4275 105.375 220.4375 C105.43902818 224.21892873 105.78002636 227.85915089 106.22460938 231.609375 C106.73573721 237.20875742 106.11475768 239.93885182 102.375 244.4375 C101.7975 245.22125 101.22 246.005 100.625 246.8125 C100.2125 247.34875 99.8 247.885 99.375 248.4375 C100.035 249.38625 100.695 250.335 101.375 251.3125 C103.98561431 255.9090459 104.23647597 260.26864421 103.375 265.4375 C101.76969446 268.48204499 100.36754265 270.59765622 97.75 272.8125 C94.09257923 277.13490636 94.27455997 283.55862058 94 288.9375 C93.60812299 294.48802032 93.0044524 299.06354454 89.375 303.4375 C82.36793135 309.17840429 76.07277174 309.63110206 67.3125 309.625 C65.88296997 309.6259668 65.88296997 309.6259668 64.42456055 309.62695312 C59.73123948 309.59162576 55.28894978 309.45443483 50.6875 308.4375 C41.21785176 306.34660167 28.80382175 305.3364286 20.12109375 310.26171875 C19.25677734 310.84373047 19.25677734 310.84373047 18.375 311.4375 C17.323125 312.0975 16.27125 312.7575 15.1875 313.4375 C8.47748751 319.53242801 5.80617537 329.24333715 4.2109375 337.84375 C3.16969634 341.07451695 2.02024876 342.31844352 -0.625 344.4375 C-3.46424103 344.94365788 -3.46424103 344.94365788 -6.81164551 344.9521637 C-8.08190079 344.96488815 -9.35215607 344.97761261 -10.66090393 344.99072266 C-12.06625552 344.9845404 -13.4716053 344.97793438 -14.87695312 344.97094727 C-16.35872762 344.97800544 -17.8404949 344.98675003 -19.32225037 344.99705505 C-23.34499906 345.01956931 -27.36735471 345.01660492 -31.39014244 345.00773358 C-34.7476718 345.00262634 -38.10512713 345.009914 -41.46264887 345.01720566 C-49.38222878 345.03421075 -57.30161603 345.0306323 -65.22119141 345.01391602 C-73.39431234 344.99698779 -81.56689946 345.01283718 -89.7399621 345.0451389 C-96.75579868 345.07181757 -103.77146891 345.07911568 -110.78735113 345.07062382 C-114.97827343 345.06569026 -119.16887439 345.06793322 -123.35975647 345.08841133 C-127.29981621 345.10674211 -131.23910666 345.1008427 -135.17912483 345.07621193 C-136.6255206 345.0711959 -138.07197472 345.07471447 -139.5183239 345.08736038 C-141.49161668 345.10324951 -143.46509565 345.08534619 -145.43835449 345.06568909 C-146.54299797 345.06510278 -147.64764145 345.06451647 -148.78575897 345.06391239 C-151.625 344.4375 -151.625 344.4375 -153.97846222 342.06474209 C-156.09427795 338.68871257 -156.25392141 337.38675648 -155.625 333.4375 C-154.32133205 329.886395 -152.725477 326.48804174 -151.125 323.0625 C-140.1148108 298.57709528 -132.45285435 273.47758956 -132.4375 246.5 C-132.42525391 245.37142578 -132.41300781 244.24285156 -132.40039062 243.08007812 C-132.38580835 234.72443678 -132.64574004 226.79041647 -137.25 219.5625 C-137.77078125 218.73363281 -138.2915625 217.90476562 -138.828125 217.05078125 C-140.78750443 214.20116203 -142.88770208 211.48774784 -145 208.75 C-147.44827927 205.41827255 -148.57727247 203.66512359 -149.4375 199.5625 C-148.37819851 195.48826349 -147.0369715 193.88521869 -143.625 191.4375 C-139.57736357 190.85926622 -137.09779337 191.38707639 -133.625 193.4375 C-131.40514547 195.70103944 -129.57446372 198.26782478 -127.6875 200.8125 C-127.15334473 201.53131348 -126.61918945 202.25012695 -126.06884766 202.99072266 C-116.53589013 216.1750989 -114.23865085 229.31677313 -114.3125 245.3125 C-114.32095947 247.23570068 -114.32095947 247.23570068 -114.32958984 249.19775391 C-114.66100059 275.37920319 -120.86879813 302.92509625 -132.625 326.4375 C-92.695 326.7675 -52.765 327.0975 -11.625 327.4375 C-10.635 324.1375 -9.645 320.8375 -8.625 317.4375 C-3.64511543 305.87705369 3.69951528 297.59091903 15.1328125 292.1171875 C27.56729666 287.4745472 42.78220428 288.01528362 55.5703125 290.9921875 C62.07678168 292.02524807 68.80593544 291.57612035 75.375 291.4375 C75.43969482 290.848479 75.50438965 290.25945801 75.57104492 289.65258789 C75.88146539 286.93234537 76.22178527 284.21660784 76.5625 281.5 C76.71428711 280.11071289 76.71428711 280.11071289 76.86914062 278.69335938 C77.73588523 272.01708334 79.70076122 267.07295844 83.375 261.4375 C84.035 261.4375 84.695 261.4375 85.375 261.4375 C82.62063488 258.51620366 79.9294617 256.03927656 76.625 253.75 C73.375 251.4375 73.375 251.4375 72.375 249.4375 C71.80392613 242.35618405 71.80392613 242.35618405 73.8125 239.125 C76.86936977 237.11193942 79.85766598 236.0896641 83.3515625 235.05078125 C85.41646967 234.48699475 85.41646967 234.48699475 87.375 233.4375 C87.34019531 232.20773437 87.30539062 230.97796875 87.26953125 229.7109375 C87.24137955 228.07813873 87.21408087 226.4453251 87.1875 224.8125 C87.16236328 224.00425781 87.13722656 223.19601562 87.11132812 222.36328125 C87.03891044 216.42503087 87.85166379 212.18207659 92.0234375 207.64453125 C92.59320313 207.18433594 93.16296875 206.72414063 93.75 206.25 C94.35714844 205.75886719 94.96429688 205.26773438 95.58984375 204.76171875 C97.76360951 203.14923168 99.99925433 201.73336128 102.375 200.4375 C101.0861231 196.70620137 99.64571555 194.41274863 96.875 191.625 C85.74774897 179.46406991 76.05025796 163.23200289 76.3828125 146.43359375 C76.40320858 145.04892426 76.42253588 143.66423871 76.44091797 142.27954102 C76.45659821 141.20048996 76.45659821 141.20048996 76.47259521 140.09963989 C76.8712118 107.74111752 70.52653108 78.8624304 49.375 53.4375 C48.60542969 52.50421875 47.83585938 51.5709375 47.04296875 50.609375 C30.76161494 31.77666204 8.34961202 20.45420283 -15.60571289 14.70458984 C-22.1220083 13.02323895 -22.1220083 13.02323895 -24.73828125 9.9765625 C-26.00204301 6.35786144 -25.69051826 4.10021901 -24.625 0.4375 C-18.91759111 -6.92689857 -7.61721991 -2.32961558 0 0 Z " fill="#000000" transform="translate(252.625,160.5625)"/>
<path d="M0 0 C1.02616153 -0.00785502 1.02616153 -0.00785502 2.0730536 -0.01586872 C4.35281929 -0.03080451 6.63235926 -0.03157245 8.91217041 -0.03224182 C10.55198543 -0.03986769 12.19179688 -0.04829592 13.831604 -0.0574646 C18.27806628 -0.0793755 22.7244598 -0.08820402 27.17096996 -0.09329104 C29.95208484 -0.09693892 32.73318182 -0.10318126 35.51428986 -0.11029243 C45.22570076 -0.13477597 54.93705835 -0.14783627 64.64849854 -0.15138245 C73.68604506 -0.15501593 82.72325161 -0.18490065 91.76069427 -0.22678703 C99.53161963 -0.26153455 107.30243257 -0.27693167 115.07343507 -0.27762848 C119.70943587 -0.27841983 124.34509024 -0.28709291 128.98101044 -0.31562614 C133.34456162 -0.34188317 137.70748102 -0.34396976 142.07107544 -0.3279705 C143.66655103 -0.32616201 145.2620636 -0.33279234 146.85746002 -0.34878922 C158.07660441 -0.45436427 166.25368543 0.93625343 174.84283447 8.52415466 C182.56540801 16.88420479 183.11646623 26.8374883 183.12896729 37.67893982 C183.13393219 38.71392609 183.13889709 39.74891235 183.14401245 40.81526184 C183.15858801 44.23125379 183.16542915 47.64719926 183.17095947 51.06321716 C183.17671561 53.44728089 183.18247328 55.83134461 183.18823242 58.21540833 C183.19872994 63.21367101 183.20458049 68.21191767 183.20806885 73.21018982 C183.21354464 79.59191927 183.23755863 85.97343442 183.2660408 92.35509682 C183.28473431 97.2812714 183.2898764 102.2073951 183.29140472 107.13360214 C183.29441766 109.48495528 183.30239985 111.83630781 183.3155899 114.18762589 C183.47320681 144.45017246 183.47320681 144.45017246 174.92095947 154.36790466 C167.85073465 161.26844409 159.75675112 163.50893157 150.04362488 163.48648071 C148.77549706 163.46851189 148.77549706 163.46851189 147.48175049 163.45018005 C146.56844971 163.44576904 145.65514893 163.44135803 144.71417236 163.43681335 C142.74391456 163.42701664 140.77367342 163.41319199 138.8034687 163.39572334 C134.6043128 163.36314032 130.40539867 163.36575456 126.20613766 163.36601162 C118.40234979 163.3658683 110.59919316 163.35062997 102.79571533 163.27781677 C97.35254581 163.22837673 91.91083739 163.22289552 86.46751213 163.24595451 C84.40111285 163.24652157 82.33464067 163.23093287 80.26849556 163.19851875 C69.07456294 162.69103511 69.07456294 162.69103511 58.77038574 166.20518494 C56.49451427 168.44642296 54.74363204 170.62900303 52.96783447 173.27415466 C51.80854763 174.62845429 50.63630119 175.97190827 49.44439697 177.29759216 C48.88526611 177.94824646 48.32613525 178.59890076 47.75006104 179.26927185 C44.45197926 182.97938795 40.88273884 186.42179277 37.34283447 189.89915466 C31.48367406 195.61059686 31.48367406 195.61059686 26.06939697 201.73509216 C23.96783447 204.27415466 23.96783447 204.27415466 21.96783447 205.27415466 C14.7896896 205.85303731 14.7896896 205.85303731 11.862854 203.79148865 C9.16536499 200.20815843 9.4676586 196.87215719 9.57720947 192.57102966 C9.58286926 191.73323975 9.58852905 190.89544983 9.59436035 190.03227234 C9.61671118 187.362313 9.66690349 184.69370679 9.71783447 182.02415466 C9.73790122 180.21167408 9.75615169 178.39917241 9.77252197 176.58665466 C9.81657154 172.14863508 9.88558882 167.71162411 9.96783447 163.27415466 C9.01521729 163.28865662 8.0626001 163.30315857 7.08111572 163.31809998 C5.199729 163.33501892 5.199729 163.33501892 3.28033447 163.35227966 C2.03896729 163.36678162 0.7976001 163.38128357 -0.48138428 163.39622498 C-9.5712745 163.08372875 -16.51345032 159.11678507 -22.71966553 152.58665466 C-29.12639174 145.70862906 -29.47540416 136.79881257 -29.43621826 127.87034607 C-29.44308151 126.76504044 -29.44994476 125.6597348 -29.45701599 124.52093506 C-29.47522679 120.88906284 -29.47145422 117.25762499 -29.46575928 113.62571716 C-29.47032401 111.08660238 -29.47563045 108.54748884 -29.48164368 106.00837708 C-29.49056376 100.69424328 -29.48840031 95.38026587 -29.47821045 90.06614685 C-29.46673864 83.9488194 -29.48079834 77.83193087 -29.50760692 71.71466124 C-29.53254751 65.79917689 -29.5349227 59.88382735 -29.52849007 53.96828842 C-29.52833725 51.46539455 -29.53434823 48.96249206 -29.54678154 46.45962906 C-29.56175304 42.95167692 -29.55096784 39.44467587 -29.53387451 35.93675232 C-29.54354248 34.91510483 -29.55321045 33.89345734 -29.56317139 32.84085083 C-29.46773178 23.42956693 -27.22631294 14.6605331 -20.60247803 7.70384216 C-14.37427254 2.03338642 -8.32223838 0.03171383 0 0 Z M-10.03216553 22.27415466 C-11.80532884 25.25731843 -12.28507907 27.42722155 -12.29959106 30.88409424 C-12.30812103 31.80503372 -12.316651 32.72597321 -12.32543945 33.67481995 C-12.32453308 34.67802277 -12.32362671 35.68122559 -12.32269287 36.71482849 C-12.3294101 37.77706131 -12.33612732 38.83929413 -12.3430481 39.93371582 C-12.3620648 43.44958662 -12.36595428 46.96526687 -12.36810303 50.48118591 C-12.37452877 52.92492756 -12.38125696 55.36866843 -12.38827515 57.81240845 C-12.40025738 62.93777754 -12.40395503 68.06307919 -12.402771 73.1884613 C-12.40256784 79.7524283 -12.42986258 86.31596217 -12.46431541 92.87982655 C-12.48656648 97.92848695 -12.49060906 102.97704287 -12.48955154 108.0257473 C-12.49191048 110.44543131 -12.5007504 112.86511807 -12.51621628 115.2847538 C-12.53583754 118.67190887 -12.53005237 122.0581267 -12.51800537 125.44529724 C-12.52924438 126.44242737 -12.5404834 127.4395575 -12.55206299 128.46690369 C-12.49666328 134.60453258 -11.65110186 138.26446106 -8.03216553 143.27415466 C-2.69597229 147.34541041 3.71762467 146.79166756 10.15533447 146.89915466 C12.31558142 146.95013394 14.47574848 147.00465745 16.63580322 147.06321716 C17.58737305 147.08078064 18.53894287 147.09834412 19.51934814 147.11643982 C21.96783447 147.27415466 21.96783447 147.27415466 24.96783447 148.27415466 C25.71299346 151.66051775 26.1355401 154.89358569 26.28424072 158.35618591 C26.34708252 159.7532074 26.34708252 159.7532074 26.41119385 161.17845154 C26.45051025 162.13815857 26.48982666 163.0978656 26.53033447 164.08665466 C26.59510986 165.55521912 26.59510986 165.55521912 26.66119385 167.05345154 C26.76685707 169.46022493 26.86895774 171.8670945 26.96783447 174.27415466 C32.28945394 169.83484025 37.22407461 165.14023861 42.09283447 160.21165466 C42.78248291 159.51749451 43.47213135 158.82333435 44.18267822 158.10813904 C45.47048786 156.81171117 46.75725551 155.51424663 48.0425415 154.21531677 C48.67788818 153.57473328 49.31323486 152.93414978 49.96783447 152.27415466 C50.63346909 151.42173691 51.2991037 150.56931915 51.98490906 149.69107056 C56.17641081 146.29490545 59.37497609 146.58526044 64.61993408 146.66233826 C65.58638351 146.65667343 66.55283295 146.65100861 67.54856873 146.64517212 C70.73950098 146.63168071 73.92929571 146.65260926 77.12017822 146.67259216 C79.3406909 146.66709217 81.5611985 146.65896774 83.7816925 146.64833069 C89.62712172 146.62543228 95.47217718 146.62966985 101.31762695 146.64213562 C110.67019617 146.66043312 120.02254603 146.65048825 129.37506294 146.61627579 C132.64011876 146.61017173 135.9047046 146.62343297 139.16972351 146.63825989 C141.17526368 146.63531153 143.18080298 146.63165663 145.18634033 146.62718201 C146.0919873 146.63647232 146.99763428 146.64576263 147.9307251 146.65533447 C153.03556648 146.62314373 156.54664606 146.112674 160.96783447 143.27415466 C166.73492245 137.35119944 166.11683646 131.0507441 166.11309814 123.25486755 C166.11645676 122.24940384 166.11981537 121.24394012 166.12327576 120.20800781 C166.13276699 116.88759625 166.13472786 113.5672352 166.13580322 110.24681091 C166.13901671 107.93662495 166.14238085 105.62643919 166.14588928 103.31625366 C166.15187571 98.4751488 166.15372964 93.63406179 166.15313721 88.79295349 C166.15303553 82.59113206 166.16669578 76.38942497 166.18390942 70.18763065 C166.19502908 65.4169665 166.19705643 60.64633001 166.19652748 55.87565422 C166.19770733 53.58912702 166.20212941 51.30259911 166.20985985 49.01608467 C166.21966033 45.8182537 166.2167815 42.6206713 166.21075439 39.4228363 C166.2163739 38.47978638 166.22199341 37.53673645 166.2277832 36.56510925 C166.19740595 30.22027556 165.84931795 25.39082358 161.46783447 20.46165466 C157.64863693 17.11985681 155.67390512 17.14400042 150.65551758 17.12025452 C150.00059019 17.11587226 149.34566281 17.11149001 148.67088914 17.10697496 C146.46615712 17.09357106 144.26146509 17.08740455 142.05670166 17.08128357 C140.47995319 17.07338382 138.90320653 17.06511495 137.32646179 17.0565033 C132.13922862 17.03026731 126.95198732 17.01497357 121.76470947 17.00071716 C119.97994227 16.99535803 118.19517512 16.98998052 116.41040802 16.98458481 C108.98663406 16.9629533 101.5628623 16.94421636 94.13906479 16.93296242 C83.49549538 16.91672221 72.85229099 16.88354597 62.20885921 16.82656157 C54.72768291 16.78787192 47.24660428 16.76833086 39.76533055 16.76304185 C35.29593053 16.75938688 30.82691968 16.74735059 26.35762787 16.71493912 C22.15174715 16.68487565 17.94649142 16.67854026 13.7405262 16.69032288 C12.19819116 16.69054376 10.65582727 16.68222611 9.11359215 16.66466904 C-1.71899957 16.22778349 -1.71899957 16.22778349 -10.03216553 22.27415466 Z " fill="#000000" transform="translate(322.03216552734375,6.7258453369140625)"/>
<path d="M0 0 C12.01331646 -0.56989167 24.59051813 2.35692649 35.05859375 8.15234375 C35.89648438 8.59449219 36.734375 9.03664062 37.59765625 9.4921875 C54.25515238 18.80078828 64.28386427 33.26755955 70.0234375 51.16015625 C75.13107978 69.94309883 72.11912268 88.90948751 63.03515625 105.8984375 C53.27244929 121.97024559 38.3268672 132.64521402 20.43359375 138.08984375 C-0.04078528 142.78888156 -19.32444951 138.97981328 -37.09765625 128.08203125 C-52.29275184 117.77107353 -62.68719188 101.91754866 -66.4375 83.9375 C-69.1573834 63.50674794 -65.4602906 45.33698047 -53.95703125 28.1953125 C-42.3204168 13.04444049 -26.83291314 4.25256547 -8.23828125 0.625 C-5.49185403 0.27449443 -2.75627053 0.21628682 0 0 Z M-37.62890625 35.77734375 C-47.13969214 46.70144572 -50.44632177 59.43858274 -50.1875 73.59765625 C-49.1688677 88.31123385 -42.54363557 100.09909718 -31.94140625 110.15234375 C-18.97673214 121.1030879 -4.37797021 123.44797227 12.05859375 122.15234375 C16.3409113 121.29773808 20.10341449 119.9852317 24.05859375 118.15234375 C24.84234375 117.80171875 25.62609375 117.45109375 26.43359375 117.08984375 C39.98105101 110.31611512 48.49764277 98.74294007 53.33203125 84.66015625 C57.14673965 71.49325953 55.58085411 57.7023344 49.43359375 45.52734375 C42.10146949 32.99410672 31.11158465 23.270967 17.05859375 19.15234375 C-4.29071657 14.47633711 -22.4146124 20.13197824 -37.62890625 35.77734375 Z " fill="#000000" transform="translate(118.94140625,154.84765625)"/>
<path d="M0 0 C1.14362 -0.0087616 2.28723999 -0.01752319 3.46551514 -0.02655029 C7.24562524 -0.04855603 11.02456551 -0.03398574 14.8046875 -0.01708984 C17.43115463 -0.0204576 20.05762024 -0.02530987 22.68408203 -0.03158569 C28.18860548 -0.04067488 33.69279319 -0.02871402 39.19726562 -0.00488281 C45.5555849 0.02232767 51.9131025 0.01351295 58.27140236 -0.01401484 C64.39521517 -0.03946331 70.51867337 -0.03673885 76.64251709 -0.02210617 C79.24526074 -0.01876884 81.84802483 -0.02287064 84.45074463 -0.03450394 C88.08750741 -0.04719142 91.72272726 -0.02786139 95.359375 0 C96.43693054 -0.01012115 97.51448608 -0.02024231 98.62469482 -0.03067017 C105.89585498 0.07261965 105.89585498 0.07261965 109.84814453 2.96865845 C112.28113004 6.52647815 112.43445017 8.42030172 111.6796875 12.64697266 C109.62787249 15.64739655 107.99768416 17.38570371 104.35003662 18.10878372 C101.34277615 18.30033389 98.37270831 18.32224865 95.359375 18.29394531 C93.64394501 18.30708771 93.64394501 18.30708771 91.89385986 18.32049561 C88.11374976 18.34250134 84.33480949 18.32793106 80.5546875 18.31103516 C77.92822037 18.31440291 75.30175476 18.31925518 72.67529297 18.32553101 C67.17076952 18.33462019 61.66658181 18.32265933 56.16210938 18.29882812 C49.8037901 18.27161764 43.4462725 18.28043236 37.08797264 18.30796015 C30.96415983 18.33340863 24.84070163 18.33068416 18.71685791 18.31605148 C16.11411426 18.31271415 13.51135017 18.31681595 10.90863037 18.32844925 C7.27186759 18.34113673 3.63664774 18.3218067 0 18.29394531 C-1.61633331 18.30912704 -1.61633331 18.30912704 -3.26531982 18.32461548 C-10.53647998 18.22132567 -10.53647998 18.22132567 -14.48876953 15.32528687 C-16.92175504 11.76746716 -17.07507517 9.87364359 -16.3203125 5.64697266 C-12.00769255 -0.6594867 -6.98591495 -0.0656166 0 0 Z " fill="#000000" transform="translate(350.3203125,79.35302734375)"/>
<path d="M0 0 C1.14362 -0.0087616 2.28723999 -0.01752319 3.46551514 -0.02655029 C7.24562524 -0.04855603 11.02456551 -0.03398574 14.8046875 -0.01708984 C17.43115463 -0.0204576 20.05762024 -0.02530987 22.68408203 -0.03158569 C28.18860548 -0.04067488 33.69279319 -0.02871402 39.19726562 -0.00488281 C45.5555849 0.02232767 51.9131025 0.01351295 58.27140236 -0.01401484 C64.39521517 -0.03946331 70.51867337 -0.03673885 76.64251709 -0.02210617 C79.24526074 -0.01876884 81.84802483 -0.02287064 84.45074463 -0.03450394 C88.08750741 -0.04719142 91.72272726 -0.02786139 95.359375 0 C96.43693054 -0.01012115 97.51448608 -0.02024231 98.62469482 -0.03067017 C105.89253333 0.07257246 105.89253333 0.07257246 109.85595703 2.9647522 C112.24030068 6.47148493 112.28499661 8.48547252 111.6796875 12.64697266 C109.91953619 15.83200835 109.18077834 16.47994238 105.6796875 17.64697266 C104.09235497 17.74662738 102.50122091 17.79048977 100.91079712 17.8008728 C99.9294429 17.80947327 98.94808868 17.81807373 97.93699646 17.82693481 C96.32390343 17.83332474 96.32390343 17.83332474 94.67822266 17.83984375 C92.9778611 17.85210999 92.9778611 17.85210999 91.2431488 17.86462402 C87.48502127 17.88947498 83.72693144 17.90599122 79.96875 17.92041016 C78.68693218 17.92573383 77.40511436 17.93105751 76.08445358 17.93654251 C70.69885424 17.95776849 65.31326718 17.97689935 59.9276371 17.9881649 C52.21336398 18.00440905 44.49959408 18.03760738 36.78551066 18.09456575 C30.70450732 18.13793392 24.62370147 18.15390952 18.54255295 18.16029739 C15.95652047 18.16702665 13.3704958 18.18229175 10.78456497 18.2061882 C7.16929805 18.237697 3.55530876 18.23789747 -0.06005859 18.23046875 C-1.13140549 18.24687408 -2.20275238 18.26327942 -3.30656433 18.28018188 C-10.5389344 18.21922676 -10.5389344 18.21922676 -14.48501587 15.32925415 C-16.9209338 11.76916611 -17.0757033 9.87716115 -16.3203125 5.64697266 C-12.00769255 -0.6594867 -6.98591495 -0.0656166 0 0 Z " fill="#000000" transform="translate(350.3203125,46.35302734375)"/>
<path d="M0 0 C1.70079964 -0.00832352 1.70079964 -0.00832352 3.43595886 -0.01681519 C7.18364735 -0.02862501 10.93013045 -0.00432053 14.67773438 0.02148438 C17.28177841 0.02319516 19.88582417 0.02313013 22.48986816 0.0213623 C27.94733302 0.02141584 33.40445119 0.04114814 38.86181641 0.07324219 C45.16545045 0.11013354 51.46863051 0.11891739 57.77235842 0.11194468 C63.84380714 0.10563272 69.91507565 0.11662028 75.98649597 0.13591003 C78.56690207 0.14294482 81.14732188 0.14606399 83.72773743 0.1452179 C87.33306708 0.14701417 90.93775069 0.16838292 94.54296875 0.1953125 C95.61117355 0.1923819 96.67937836 0.18945129 97.779953 0.18643188 C106.90331966 0.29165284 106.90331966 0.29165284 110.77148438 3.61523438 C112.34084031 6.75394625 112.1234954 9.15379259 111.77148438 12.61523438 C109.73106247 15.63783907 108.09891349 17.35262303 104.44085693 18.07631302 C101.43385741 18.2687261 98.46429853 18.29050842 95.45117188 18.26220703 C93.73574188 18.27534943 93.73574188 18.27534943 91.98565674 18.28875732 C88.20554664 18.31076306 84.42660637 18.29619278 80.64648438 18.27929688 C78.02001725 18.28266463 75.39355163 18.2875169 72.76708984 18.29379272 C67.2625664 18.30288191 61.75837869 18.29092105 56.25390625 18.26708984 C49.89558697 18.23987936 43.53806937 18.24869408 37.17976952 18.27622187 C31.0559567 18.30167034 24.93249851 18.29894588 18.80865479 18.2843132 C16.20591113 18.28097587 13.60314704 18.28507767 11.00042725 18.29671097 C7.36366447 18.30939845 3.72844462 18.29006842 0.09179688 18.26220703 C-1.52453644 18.27738876 -1.52453644 18.27738876 -3.17352295 18.2928772 C-10.4446831 18.18958738 -10.4446831 18.18958738 -14.39697266 15.29354858 C-16.82995817 11.73572888 -16.98327829 9.84190531 -16.22851562 5.61523438 C-11.91947443 -0.67096704 -6.97004029 -0.08654272 0 0 Z " fill="#000000" transform="translate(350.228515625,112.384765625)"/>
<path d="M0 0 C2.71533469 2.50096616 3.81192266 4.23059269 4.6875 7.8125 C2.37424646 18.53758459 -12.77491057 28.10523841 -20.79296875 35.04296875 C-24.39828676 38.23989676 -27.91582136 41.53286829 -31.43334961 44.82592773 C-38.95136964 51.82522827 -38.95136964 51.82522827 -43.75 52.625 C-49.37981873 52.35592778 -52.23992205 48.84975613 -56 45 C-57.04369137 43.97594343 -58.08940672 42.95394714 -59.13671875 41.93359375 C-68.89959501 32.35546737 -68.89959501 32.35546737 -69.25 27.625 C-69 24 -69 24 -68 21.625 C-64.94923562 19.14625394 -61.81407652 18.71558512 -58 19 C-52.39138217 21.68746271 -48.25766318 26.54782429 -44 31 C-39.44341936 27.1851883 -35.04508719 23.22589885 -30.6875 19.1875 C-7.62662768 -2.17903648 -7.62662768 -2.17903648 0 0 Z " fill="#000000" transform="translate(154,199)"/>
</svg>
