<?xml version="1.0" encoding="UTF-8"?>
<svg version="1.1" xmlns="http://www.w3.org/2000/svg" width="512" height="512">
<path d="M0 0 C7.66213787 7.50225377 11.75211254 15.1578102 11.8918457 26.05102539 C11.88350708 27.23233032 11.88350708 27.23233032 11.875 28.4375 C11.87008545 29.2927124 11.8651709 30.1479248 11.86010742 31.02905273 C11.02721212 79.31562407 -2.42804323 128.05570567 -22.4375 171.75 C-23.01685303 173.03197266 -23.01685303 173.03197266 -23.60791016 174.33984375 C-39.03231393 208.33288097 -59.70875707 239.5783035 -83.9921875 267.875 C-84.79914063 268.82375 -85.60609375 269.7725 -86.4375 270.75 C-87.22382813 271.595625 -88.01015625 272.44125 -88.8203125 273.3125 C-90.70786929 275.58514489 -90.70786929 275.58514489 -90.16113281 278.03125 C-89.37982003 280.96670856 -88.46746151 283.81574882 -87.4765625 286.6875 C-86.89261719 288.40259766 -86.89261719 288.40259766 -86.296875 290.15234375 C-85.48437344 292.52042582 -84.66933584 294.88763952 -83.8515625 297.25390625 C-76.74609743 318.17295636 -72.21931958 339.80537721 -82.05224609 360.64794922 C-88.69783857 374.0644015 -97.11469277 386.08173968 -106.4375 397.75 C-107.1903125 398.69746094 -107.943125 399.64492188 -108.71875 400.62109375 C-113.25038059 406.24574087 -117.98178273 411.64389528 -122.8828125 416.94921875 C-124.88500703 419.14428523 -126.84789734 421.35988423 -128.796875 423.6015625 C-135.12577907 430.85417667 -141.77726604 437.80265213 -148.4375 444.75 C-149.30971191 445.66297852 -150.18192383 446.57595703 -151.08056641 447.51660156 C-153.82995316 450.38064775 -156.59947579 453.22379512 -159.375 456.0625 C-160.23818848 456.96379639 -161.10137695 457.86509277 -161.99072266 458.79370117 C-167.84735707 464.72643238 -173.09041129 468.79315255 -181.40625 470.28125 C-189.80440002 470.17756914 -196.19339638 468.42286856 -202.1875 462.3125 C-211.14557535 450.72491946 -214.19965287 433.31486689 -218.5625 419.5625 C-219.28482184 417.29741937 -220.00747568 415.03244459 -220.73046875 412.76757812 C-221.42737608 410.58082244 -222.12400042 408.39397655 -222.8203125 406.20703125 C-223.13912384 405.20573685 -223.45793518 404.20444244 -223.78640747 403.17280579 C-225.72883937 397.04886495 -227.61145425 390.90965247 -229.4375 384.75 C-232.31358279 386.10188016 -235.18850343 387.45618915 -238.0625 388.8125 C-238.92174072 389.21791016 -239.78098145 389.62332031 -240.66625977 390.04101562 C-247.05240753 393.06581431 -253.37021576 396.20284053 -259.65234375 399.4375 C-267.08519359 402.94021746 -276.42602366 402.92090569 -284.36328125 401.06640625 C-294.17613128 397.38849512 -301.42747461 390.0585685 -308.71166992 382.76635742 C-309.60213516 381.88260941 -310.4926004 380.99886139 -311.41004944 380.08833313 C-313.83110315 377.68293059 -316.24759432 375.27313768 -318.66147017 372.86054397 C-320.17405593 371.34938732 -321.68806017 369.83966681 -323.20256996 368.33043861 C-328.49776105 363.05369841 -333.7878143 357.77187053 -339.07299805 352.48510742 C-343.98199537 347.57490792 -348.90204916 342.67598438 -353.82739943 337.78219336 C-358.07257967 333.56323788 -362.30993815 329.33653212 -366.54138833 325.10380632 C-369.06143418 322.58325295 -371.5844196 320.06583488 -374.11534691 317.55620384 C-376.93870555 314.75596169 -379.74571055 311.93966349 -382.55151367 309.12182617 C-383.38123688 308.30334198 -384.21096008 307.48485779 -385.06582642 306.64157104 C-393.34705439 298.27005227 -398.68664859 289.53139462 -398.8125 277.5 C-398.84085937 276.27796875 -398.86921875 275.0559375 -398.8984375 273.796875 C-398.27794381 264.04106603 -392.00369829 254.63407663 -387.6875 246.125 C-387.07904963 244.91815898 -386.47097429 243.7111288 -385.86328125 242.50390625 C-384.391681 239.58406449 -382.91635621 236.66617151 -381.4375 233.75 C-384.14029743 231.94813505 -386.03984766 231.11183564 -389.08227539 230.14941406 C-390.02498795 229.84859924 -390.9677005 229.54778442 -391.9389801 229.237854 C-392.96071823 228.91701843 -393.98245636 228.59618286 -395.03515625 228.265625 C-396.09802353 227.92754822 -397.16089081 227.58947144 -398.25596619 227.2411499 C-401.66924943 226.15631241 -405.08451686 225.0778892 -408.5 224 C-416.15384915 221.57560889 -423.80562432 219.1448083 -431.45343018 216.70141602 C-433.37811419 216.08776577 -435.30363435 215.47672898 -437.23016357 214.86889648 C-439.71760529 214.08298185 -442.20099611 213.28543635 -444.68359375 212.484375 C-445.3920192 212.26348206 -446.10044464 212.04258911 -446.83033752 211.81500244 C-454.46761293 209.32006843 -459.84295492 205.22802318 -464.4375 198.75 C-467.32395642 192.97708715 -467.68157943 185.84966325 -465.81420898 179.69604492 C-461.88431797 170.23076462 -453.82762596 163.56512424 -446.625 156.5625 C-445.26907933 155.22312088 -443.91425266 153.88263329 -442.56054688 152.54101562 C-436.8799847 146.93161643 -431.18953541 141.36429739 -425.10913086 136.18530273 C-422.19095694 133.67968794 -419.42254875 131.01345028 -416.625 128.375 C-410.76333539 122.8969112 -404.73059415 117.73058418 -398.4375 112.75 C-397.34847227 111.86909014 -396.25995452 110.98754955 -395.171875 110.10546875 C-374.82812151 93.72145067 -352.63096286 78.23766681 -325.4375 79.75 C-309.08011566 81.57492824 -292.62337918 86.37141864 -277.62670898 93.09790039 C-275.06927792 93.8596823 -273.9004936 93.72162213 -271.4375 92.75 C-269.35941222 91.09107197 -267.40208913 89.40915608 -265.4375 87.625 C-221.48325773 48.88596815 -52.20266842 -44.31868771 0 0 Z M-273.10229492 136.22949219 C-274.62987416 137.75486713 -276.16533582 139.27200672 -277.70117188 140.7890625 C-284.06562278 147.11782573 -289.84287522 153.71988887 -295.4375 160.75 C-296.38471631 161.87460272 -297.33794092 162.99421338 -298.30078125 164.10546875 C-323.02323879 192.69204247 -342.79012988 225.44627752 -360.4375 258.75 C-360.86675781 259.55646973 -361.29601562 260.36293945 -361.73828125 261.19384766 C-362.90190534 263.39318953 -364.04866785 265.60023809 -365.1875 267.8125 C-365.69071777 268.76721191 -365.69071777 268.76721191 -366.20410156 269.74121094 C-367.98640266 273.27312799 -368.89763305 275.80904523 -368.4375 279.75 C-367.04055199 281.90464584 -367.04055199 281.90464584 -364.9919281 283.85067749 C-364.22794205 284.63309814 -363.46395599 285.4155188 -362.67681885 286.22164917 C-361.82754822 287.06551178 -360.97827759 287.90937439 -360.10327148 288.77880859 C-359.21718704 289.67847351 -358.3311026 290.57813843 -357.41816711 291.50506592 C-354.98759319 293.97125814 -352.541195 296.42115282 -350.09054446 298.86737776 C-348.04590413 300.91082894 -346.00862978 302.96154747 -343.97116047 305.01214468 C-339.16422476 309.84941388 -334.34390073 314.67305308 -329.51538086 319.48876953 C-324.53426768 324.45719823 -319.57757699 329.44907981 -314.63208717 334.45294702 C-310.38480664 338.74852479 -306.12222255 343.02848813 -301.84715134 347.2964083 C-299.2941274 349.84554993 -296.74748028 352.40033813 -294.2156353 354.97053146 C-291.39175531 357.83569145 -288.5366873 360.66764151 -285.67749023 363.49755859 C-284.84238922 364.35356659 -284.00728821 365.20957458 -283.1468811 366.09152222 C-278.63904265 370.70992531 -278.63904265 370.70992531 -272.52355957 371.82783508 C-269.69617552 370.84034484 -267.02538647 369.85958599 -264.34765625 368.51953125 C-262.94229614 367.82053711 -262.94229614 367.82053711 -261.50854492 367.10742188 C-260.5157251 366.59759766 -259.52290527 366.08777344 -258.5 365.5625 C-257.45239502 365.03076172 -256.40479004 364.49902344 -255.32543945 363.95117188 C-230.9626624 351.42517289 -207.56679309 336.88736142 -185.4375 320.75 C-184.75026855 320.24968262 -184.06303711 319.74936523 -183.35498047 319.23388672 C-174.05527866 312.43450427 -165.12792674 305.31055106 -156.4375 297.75 C-155.70144531 297.11449219 -154.96539062 296.47898437 -154.20703125 295.82421875 C-152.27284482 294.14483532 -150.35454127 292.44892256 -148.4375 290.75 C-147.73270508 290.12931641 -147.02791016 289.50863281 -146.30175781 288.86914062 C-139.97536059 283.24509187 -133.90649798 277.40524723 -127.92358398 271.42138672 C-126.37826934 269.8782647 -124.82509554 268.34335694 -123.27148438 266.80859375 C-116.87378599 260.44640214 -111.06449115 253.81448065 -105.4375 246.75 C-104.50272037 245.64817193 -103.56137378 244.55182875 -102.609375 243.46484375 C-86.49413899 224.98430697 -73.19556186 204.21631083 -61.50537109 182.70507812 C-60.44191959 180.75809147 -59.35688239 178.82434412 -58.26953125 176.890625 C-34.6552541 134.31670711 -18.29168807 81.17097825 -18.25 32.1875 C-18.23775391 31.39537109 -18.22550781 30.60324219 -18.21289062 29.78710938 C-18.20774036 27.77335389 -18.31384229 25.7599618 -18.4375 23.75 C-20.90598132 21.28151868 -22.36467528 21.46771363 -25.74047852 21.4206543 C-26.48612061 21.42621338 -27.2317627 21.43177246 -28 21.4375 C-28.79011475 21.44241455 -29.58022949 21.4473291 -30.39428711 21.45239258 C-122.60877791 23.17859261 -209.3269085 72.44385084 -273.10229492 136.22949219 Z M-383.4375 139.75 C-383.95505859 140.18119141 -384.47261719 140.61238281 -385.00585938 141.05664062 C-398.05141157 151.95131324 -410.40974553 163.59001602 -422.34375 175.6875 C-425.24523881 178.54568301 -428.29842132 181.15684805 -431.4375 183.75 C-430.60535509 185.9583543 -430.60535509 185.9583543 -428.25856018 186.66040039 C-427.29610886 186.96969482 -426.33365753 187.27898926 -425.34204102 187.59765625 C-424.25323135 187.95142334 -423.16442169 188.30519043 -422.0426178 188.66967773 C-420.85421799 189.04680908 -419.66581818 189.42394043 -418.44140625 189.8125 C-416.614636 190.40043335 -416.614636 190.40043335 -414.7509613 191.00024414 C-412.1640233 191.8321403 -409.57546127 192.65870986 -406.9855957 193.48144531 C-403.69131614 194.52826344 -400.40084053 195.58647066 -397.11148167 196.64863586 C-393.95243664 197.66727849 -390.79059042 198.67707783 -387.62890625 199.6875 C-386.45872452 200.06463135 -385.28854279 200.4417627 -384.082901 200.83032227 C-377.58404523 202.88825665 -371.15962594 204.60083523 -364.4375 205.75 C-360.38104556 200.01674573 -356.411111 194.23954992 -352.5559082 188.36914062 C-342.79968456 173.53004492 -332.59812197 159.07463666 -320.9453125 145.65625 C-318.5667427 142.89977658 -316.27719364 140.09037057 -314 137.25 C-308.77185119 130.8146241 -303.11220024 124.78957098 -297.4375 118.75 C-299.70782597 116.47967403 -300.99870106 116.13204365 -304.05078125 115.27734375 C-304.96923828 115.01759766 -305.88769531 114.75785156 -306.83398438 114.49023438 C-307.79626953 114.22533203 -308.75855469 113.96042969 -309.75 113.6875 C-310.70068359 113.41873047 -311.65136719 113.14996094 -312.63085938 112.87304688 C-342.42252052 104.52471975 -361.34121008 121.23689223 -383.4375 139.75 Z M-118.4296875 303.49609375 C-119.04642334 304.08140869 -119.66315918 304.66672363 -120.29858398 305.26977539 C-120.96317627 305.90262451 -121.62776855 306.53547363 -122.3125 307.1875 C-128.48078413 312.99940408 -134.81052194 318.46440758 -141.4375 323.75 C-142.63969862 324.74145868 -143.84010067 325.73509829 -145.0390625 326.73046875 C-161.26191732 340.15859588 -178.4284746 351.89191778 -196.15771484 363.23876953 C-198.31558396 364.66918395 -200.38416486 366.17418466 -202.4375 367.75 C-201.80033502 374.31953068 -199.79978199 380.28235222 -197.7265625 386.52734375 C-197.3577597 387.65266006 -196.98895691 388.77797638 -196.60897827 389.93739319 C-195.82992759 392.31096263 -195.04809925 394.68362197 -194.26367188 397.05541992 C-193.06835043 400.66980958 -191.88106787 404.28675897 -190.6953125 407.90429688 C-189.93536411 410.21629981 -189.17496239 412.52815379 -188.4140625 414.83984375 C-187.88421249 416.45112404 -187.88421249 416.45112404 -187.34365845 418.09495544 C-185.48988103 423.69582586 -183.55439657 429.24301292 -181.4375 434.75 C-178.41290941 432.55029775 -175.90271649 430.21679158 -173.5 427.375 C-170.01458656 423.28442686 -166.25622667 419.52475861 -162.4375 415.75 C-158.1742303 411.52668285 -154.00277136 407.30030838 -150.125 402.71484375 C-148.04279345 400.2904227 -145.86247793 397.96649968 -143.6875 395.625 C-138.39722495 389.82172859 -133.57112531 383.71745403 -128.79003906 377.4921875 C-127.4924943 375.82083742 -126.16986771 374.17363261 -124.8359375 372.53125 C-120.18301366 366.7490451 -116.10787921 360.83289554 -112.4375 354.375 C-112.06351074 353.72096191 -111.68952148 353.06692383 -111.30419922 352.39306641 C-103.81901079 338.7852088 -106.32669746 325.96192724 -110.4375 311.75 C-111.65382917 308.03115575 -112.96556308 304.37503614 -114.4375 300.75 C-116.20641116 300.75 -117.20326502 302.32272217 -118.4296875 303.49609375 Z " fill="#000000" transform="translate(483.4375,25.25)"/>
<path d="M0 0 C12.51445399 12.88252617 17.38596129 28.65913452 17.30102539 46.25170898 C16.88887775 63.82385271 8.95795919 78.46888564 -3.5 90.625 C-7.32942722 93.82378742 -11.5723952 96.06305681 -16 98.3125 C-16.66451172 98.65039551 -17.32902344 98.98829102 -18.01367188 99.33642578 C-32.21971979 106.23341315 -48.36997441 106.33053851 -63.3828125 102.03125 C-77.88171415 96.95834824 -90.61457201 86.55738623 -98 73 C-105.76731695 56.64775379 -107.06806798 39.2745768 -101.21484375 22.08984375 C-94.8598097 5.92639701 -83.94046702 -4.9550035 -68.3125 -12.3125 C-64.283056 -13.98726003 -60.28747008 -15.19609936 -56 -16 C-55.0409375 -16.185625 -55.0409375 -16.185625 -54.0625 -16.375 C-33.85457517 -19.43680679 -15.46439927 -13.03569554 0 0 Z M-69.5390625 25.94921875 C-73.96310221 32.53353516 -76.13122725 40.03898823 -75 48 C-72.56889912 57.434329 -68.58354993 64.91578811 -60.375 70.375 C-52.45385883 74.72805956 -44.08520366 75.98667581 -35.30859375 73.75390625 C-26.52933692 70.88690698 -19.89842017 66.11237616 -15.625 57.75 C-11.88162733 49.61223333 -11.47819308 40.10025363 -14.5625 31.625 C-18.54601811 23.21688218 -24.15424435 17.95488905 -32.61328125 14.0703125 C-47.14842387 9.47673802 -60.31622198 14.26851465 -69.5390625 25.94921875 Z " fill="#000000" transform="translate(387,125)"/>
<path d="M0 0 C3.5677811 2.35149209 5.84221079 4.99692157 7.75 8.8125 C8.78896089 16.14518518 6.57444206 21.19475752 3.1875 27.5625 C-7.31570459 48.5001393 -12.57196919 70.78060633 -16.25 93.8125 C9.14702768 89.31344267 33.06725195 83.5889492 56.06640625 71.5703125 C60.39851538 69.38340705 63.95856276 68.92519681 68.75 69.8125 C73.86762818 72.46608498 76.92705942 75.34367826 78.75 80.8125 C79.26148257 86.95029087 78.52374547 90.74122394 74.75 95.8125 C48.81570917 116.78818591 4.04538725 124.70415448 -28.5 125.125 C-29.6446875 125.16850586 -29.6446875 125.16850586 -30.8125 125.21289062 C-36.10671131 125.2722223 -39.12007379 124.41126518 -43.25 120.8125 C-47.08882009 116.30939157 -47.86678107 112.63714529 -47.6875 106.875 C-47.67283691 106.09777588 -47.65817383 105.32055176 -47.64306641 104.51977539 C-46.74896991 75.58692656 -39.41768516 46.66301869 -27.75 20.25 C-27.39446045 19.44071045 -27.0389209 18.6314209 -26.67260742 17.79760742 C-23.66618233 11.20986943 -20.35992914 4.04353613 -14.375 -0.25 C-9.15913359 -1.81475992 -5.13385819 -1.8758328 0 0 Z " fill="#000000" transform="translate(84.25,350.1875)"/>
</svg>
